/* XPM */
static char *result[] = {
/* columns rows colors chars-per-pixel */
"32 32 159 2 ",
"   c #454B53",
".  c #464B53",
"X  c #454B54",
"o  c #464C54",
"O  c #464C55",
"+  c #484D56",
"@  c #484E56",
"#  c #494F56",
"$  c #4A4F57",
"%  c #4E5258",
"&  c #4E5359",
"*  c #4F5359",
"=  c #50535A",
"-  c #50545A",
";  c #51545A",
":  c #51555A",
">  c #52555A",
",  c #52555B",
"<  c #53565B",
"1  c #54575B",
"2  c #54575C",
"3  c #55575C",
"4  c #55585C",
"5  c #5C5D60",
"6  c #5C5E60",
"7  c #646464",
"8  c #656464",
"9  c #666565",
"0  c #696867",
"q  c #6A6968",
"w  c #76726D",
"e  c #79746F",
"r  c #7A756F",
"t  c #A29584",
"y  c #A39685",
"u  c #A49685",
"i  c #A49785",
"p  c #A59886",
"a  c #A79986",
"s  c #A69987",
"d  c #A79A87",
"f  c #A89A87",
"g  c #A89B88",
"h  c #A99B88",
"j  c #AA9B88",
"k  c #AB9C88",
"l  c #AB9D89",
"z  c #AC9D89",
"x  c #AC9E89",
"c  c #AD9E8A",
"v  c #AE9E8A",
"b  c #AF9F8B",
"n  c #AFA08B",
"m  c #B0A08B",
"M  c #B0A18B",
"N  c #B1A18B",
"B  c #B1A18C",
"V  c #B2A28C",
"C  c #B3A38D",
"Z  c #B4A38D",
"A  c #B4A48D",
"S  c #B5A58D",
"D  c #B5A48E",
"F  c #B6A58E",
"G  c #B6A68E",
"H  c #B6A68F",
"J  c #B7A68F",
"K  c #B8A68F",
"L  c #B8A78F",
"P  c #B9A890",
"I  c #BAA890",
"U  c #BAA990",
"Y  c #BBA991",
"T  c #BCAA91",
"R  c #BDAA92",
"E  c #BDAB92",
"W  c #BFAD93",
"Q  c #C0AD93",
"!  c #C1AE94",
"~  c #C3AF96",
"^  c #C4B196",
"/  c #C6B297",
"(  c #C8B498",
")  c #C9B599",
"_  c #CAB699",
"`  c #CBB69A",
"'  c #CCB79A",
"]  c #CDB79A",
"[  c #CCB89A",
"{  c #CDB89A",
"}  c #CDB89B",
"|  c #CDB99B",
" . c #CEB89A",
".. c #CEB89B",
"X. c #CEB99B",
"o. c #CFB99B",
"O. c #CFB99C",
"+. c #CFBA9C",
"@. c #D0BA9C",
"#. c #D1BA9C",
"$. c #D0BB9C",
"%. c #D1BB9D",
"&. c #D2BB9D",
"*. c #D2BC9D",
"=. c #D3BC9D",
"-. c #D2BD9D",
";. c #D3BD9D",
":. c #D3BC9E",
">. c #D3BD9E",
",. c #D4BD9D",
"<. c #D4BD9E",
"1. c #D4BE9E",
"2. c #D5BE9E",
"3. c #D5BE9F",
"4. c #D5BF9F",
"5. c #D6BF9F",
"6. c #D7BF9F",
"7. c #D7BFA0",
"8. c #D7C09F",
"9. c #D7C0A0",
"0. c #D8C0A0",
"q. c #D9C0A0",
"w. c #D8C1A0",
"e. c #D9C1A0",
"r. c #D9C1A1",
"t. c #DAC1A1",
"y. c #D9C2A0",
"u. c #D9C2A1",
"i. c #DAC2A1",
"p. c #DBC3A1",
"a. c #DBC2A2",
"s. c #DBC3A2",
"d. c #DCC3A2",
"f. c #DBC4A2",
"g. c #DCC4A2",
"h. c #DDC4A2",
"j. c #DDC5A2",
"k. c #DDC4A3",
"l. c #DDC5A3",
"z. c #DEC5A3",
"x. c #DFC5A3",
"c. c #DEC6A3",
"v. c #DFC6A3",
"b. c #DEC5A4",
"n. c #DFC6A4",
"m. c #E0C7A3",
"M. c #E0C6A4",
"N. c #E0C7A4",
"B. c #E1C7A4",
"V. c #E1C7A5",
"C. c #E1C8A4",
"Z. c #E1C8A5",
"A. c #E2C8A5",
"S. c #E2C9A5",
"D. c #E3C9A5",
"F. c #E3C9A6",
"G. c #E3CAA6",
"H. c #E4CAA6",
"J. c None",
/* pixels */
"  X X X X X X X X X X X X X X X X X X X X X X X X X X X X X X X ",
"X o - - - - - - - - - - - - - - - - - - - - = * * - - - - - o X ",
"X : s.s.a.i.0.5.2.<.=.*.*.*.*.*.*.&.%.%.+.} ` ' o.4.5.>.&.+.- X ",
"X : i.0.4.2.5.8.w.i.p.g.h.l.z.c.z.z.l.h.h.g.c.Z.F.n.*...*.0.; X ",
"X : n.V.S.H.H.H.H.H.H.H.H.D.C.m.n.c.v.v.v.x.k.i.9.2.=.9.S.A.: X ",
"X - >.=.*.&.,.8.e.u.w.5.<.*.=.=.>.1.5.0.i.f.h.n.N.l.0.>.$.o.- X ",
"X ; 3.5.5.6.0.r.i.d.h.z.M.C.A.D.H.H.H.H.H.H.H.S.B.e.%.| ;.u.: X ",
"X % B B B B B B B B B B B B B m b c z k h a y t u f z m N B % X ",
"X X X X X X X X X X X X X X X X X X X X X X X X X X X X X X X X ",
"J.X X X X X X X X X X X X X X X X X X X X X X X X X X X X X X J.",
"J.J.J.J.J.J.J.J.J.J.J.J.J.J.J.J.J.J.J.J.J.J.J.J.J.J.J.J.J.J.J.J.",
"X X X X X X X X X X X X X X J.J.X X X X X X X X X X X X X X X X ",
"X O 2 2 4 4 4 1 < < < < # X J.J.X + 2 2 2 2 2 4 4 4 4 4 4 4 O X ",
"X % B V Z H P R T K D C 0 X J.J.X 5 A D S F F F G L U E Q ! * X ",
"X > N.h.r.2.*.&.7.h.v.N.e X J.J.X 9 S.S.S.D.D.D.S.B.z.i.9.5.; X ",
"X : z.S.H.H.A.n.g.y.w.0.w X J.J.X 7 a.i.i.p.d.c.D.H.H.H.H.H., X ",
"X - X.' $.s.G.H.H.H.H.H.r X J.J.X 8 l.g.i.w.6.1.2.8.#.[ { } - X ",
"X : v.i.;.;.w.s.g.z.v.N.e X J.J.X 9 D.D.D.F.G.H.F.Z.n.l.g.d.: X ",
"X * ! ! ! Q E P J F F F q X J.J.X 6 L P P P I Y E Q ! Q W W * X ",
"X O 4 4 4 4 4 4 4 4 4 4 $ X J.J.X @ 4 4 2 2 1 < < 2 4 3 2 2 O X ",
". X X X X X X X X X X X X X J.J.X X X X X X X X X X X X X X X X ",
"J.J.J.J.J.J.J.J.J.J.J.J.J.J.J.J.J.J.J.J.J.J.J.J.J.J.J.J.J.J.J.J.",
"J.X X X X X X X X X X X X X X X X X X X X X X X X X X X X X X J.",
"X X X X X X X X X X X X X X X X X X X X X X X X X X X X X X X X ",
"X % B B m x g p t t t y i p s d g j l z v n M B B B B B B B % X ",
"X : t.>.} ;.j.B.A.D.G.H.H.H.H.H.H.H.H.H.H.G.D.Z.N.j.i.6.5.2.; X ",
"X - O.*.8.c.G.H.H.D.S.A.C.N.z.h.s.y.9.4.<.>.=.:.5.t.<.*.=.>.- X ",
"X > S.H.H.A.z.p.0.5.5.9.q.i.g.z.v.v.v.v.n.v.N.A.H.H.H.G.Z.n.: X ",
"X ; w.2.-.*.*.3.u.z.z.z.j.h.g.g.h.l.z.z.b.z.c.z.h.i.9.5.w.i.: X ",
"X - ` { +.&.&.] ) / ^ ~ ^ ( _ ' {  .......X.o.@.*.<.2.6.6.6.; X ",
"X o = - - - * * & & & & * * = - - - - - - - - - - - - - - - o X ",
"X X                                                         X X "
};
