/* XPM */
static char *result[] = {
/* columns rows colors chars-per-pixel */
"32 32 159 2 ",
"   c #454B53",
".  c #464B53",
"X  c #454B54",
"o  c #464C54",
"O  c #464C55",
"+  c #484D56",
"@  c #484E56",
"#  c #494F56",
"$  c #4A4F57",
"%  c #4E5258",
"&  c #4E5359",
"*  c #4F5359",
"=  c #50535A",
"-  c #50545A",
";  c #51545A",
":  c #51555A",
">  c #52555A",
",  c #52555B",
"<  c #53565B",
"1  c #54575B",
"2  c #54575C",
"3  c #55575C",
"4  c #55585C",
"5  c #5C5D60",
"6  c #5C5E60",
"7  c #646464",
"8  c #656464",
"9  c #666565",
"0  c #696867",
"q  c #6A6968",
"w  c #76726D",
"e  c #79746F",
"r  c #7A756F",
"t  c #A29584",
"y  c #A39685",
"u  c #A49685",
"i  c #A49785",
"p  c #A59886",
"a  c #A79986",
"s  c #A69987",
"d  c #A79A87",
"f  c #A89A87",
"g  c #A89B88",
"h  c #A99B88",
"j  c #AA9B88",
"k  c #AB9C88",
"l  c #AB9D89",
"z  c #AC9D89",
"x  c #AC9E89",
"c  c #AD9E8A",
"v  c #AE9E8A",
"b  c #AF9F8B",
"n  c #AFA08B",
"m  c #B0A08B",
"M  c #B0A18B",
"N  c #B1A18B",
"B  c #B1A18C",
"V  c #B2A28C",
"C  c #B3A38D",
"Z  c #B4A38D",
"A  c #B4A48D",
"S  c #B5A58D",
"D  c #B5A48E",
"F  c #B6A58E",
"G  c #B6A68E",
"H  c #B6A68F",
"J  c #B7A68F",
"K  c #B8A68F",
"L  c #B8A78F",
"P  c #B9A890",
"I  c #BAA890",
"U  c #BAA990",
"Y  c #BBA991",
"T  c #BCAA91",
"R  c #BDAA92",
"E  c #BDAB92",
"W  c #BFAD93",
"Q  c #C0AD93",
"!  c #C1AE94",
"~  c #C3AF96",
"^  c #C4B196",
"/  c #C6B297",
"(  c #C8B498",
")  c #C9B599",
"_  c #CAB699",
"`  c #CBB69A",
"'  c #CCB79A",
"]  c #CDB79A",
"[  c #CCB89A",
"{  c #CDB89A",
"}  c #CDB89B",
"|  c #CDB99B",
" . c #CEB89A",
".. c #CEB89B",
"X. c #CEB99B",
"o. c #CFB99B",
"O. c #CFB99C",
"+. c #CFBA9C",
"@. c #D0BA9C",
"#. c #D1BA9C",
"$. c #D0BB9C",
"%. c #D1BB9D",
"&. c #D2BB9D",
"*. c #D2BC9D",
"=. c #D3BC9D",
"-. c #D2BD9D",
";. c #D3BD9D",
":. c #D3BC9E",
">. c #D3BD9E",
",. c #D4BD9D",
"<. c #D4BD9E",
"1. c #D4BE9E",
"2. c #D5BE9E",
"3. c #D5BE9F",
"4. c #D5BF9F",
"5. c #D6BF9F",
"6. c #D7BF9F",
"7. c #D7BFA0",
"8. c #D7C09F",
"9. c #D7C0A0",
"0. c #D8C0A0",
"q. c #D9C0A0",
"w. c #D8C1A0",
"e. c #D9C1A0",
"r. c #D9C1A1",
"t. c #DAC1A1",
"y. c #D9C2A0",
"u. c #D9C2A1",
"i. c #DAC2A1",
"p. c #DBC3A1",
"a. c #DBC2A2",
"s. c #DBC3A2",
"d. c #DCC3A2",
"f. c #DBC4A2",
"g. c #DCC4A2",
"h. c #DDC4A2",
"j. c #DDC5A2",
"k. c #DDC4A3",
"l. c #DDC5A3",
"z. c #DEC5A3",
"x. c #DFC5A3",
"c. c #DEC6A3",
"v. c #DFC6A3",
"b. c #DEC5A4",
"n. c #DFC6A4",
"m. c #E0C7A3",
"M. c #E0C6A4",
"N. c #E0C7A4",
"B. c #E1C7A4",
"V. c #E1C7A5",
"C. c #E1C8A4",
"Z. c #E1C8A5",
"A. c #E2C8A5",
"S. c #E2C9A5",
"D. c #E3C9A5",
"F. c #E3C9A6",
"G. c #E3CAA6",
"H. c #E4CAA6",
"J. c None",
/* pixels */
"X X X X X X X X X J.J.X X X X X X X X X X J.J.X X X X X X X X X ",
"X o - ; : - : % X X J.X O * ; , - : * O X J.X X % ; - : : ; o X ",
"X - +.0.A.o.u.B X X J.X 4 ! 5.H.} d.W 2 X J.X X B 2.>.n.i.6.-   ",
"X - &.*.S.$.;.N X X J.X 4 Q 9.H.{ g.W 2 X J.X X B 5.=.Z.w.6.-   ",
"X - >...9.>.| m X X J.X 4 E i.H.[ l.Q 3 X J.X X B 6.*.G.5.6.-   ",
"X - 5.*.=.0.%.z X X J.X 4 U z.H.#.n.! 4 X J.X X B i.<.H.9.2.-   ",
"X - 4.n.2.l.e.f X X J.X 4 L B.H.8.Z.Q 2 X J.X X B j.t.H.i.<.-   ",
"X * o.F.9.N.B.u X X J.X 4 G S.D.2.F.E < X J.X X B N.5.H.h.*.-   ",
"X * ' Z.i.n.S.t X X J.X 4 F D.c.1.H.Y < X J.X X B Z.:.A.z.@.-   ",
"X = ` c.k.h.H.y X X J.X 2 F D.d.6.G.I 1 X J.X X M D.=.N.c.o.-   ",
"X - } g.x.f.H.a X X J.X 2 F D.p.w.F.P 2 X J.X X n G.>.v.z.X.-   ",
"X - +.h.v.i.H.h X X J.X 2 S S.i.i.D.P 2 X J.X X v H.<.n.b...-   ",
"X - %.h.v.0.H.k X X J.X 2 D S.i.g.D.P 4 X J.X X z H.4.v.z...-   ",
"X - %.l.v.5.H.z X X J.X 2 A S.a.l.D.L 4 X J.X X l H.9.v.z...-   ",
"X - &.z.c.1.H.c X X J.X + 5 9 7 8 9 6 @ X J.X X j H.y.v.l. .-   ",
"X - *.z.n.>.H.b X X J.X X X X X X X X X X J.X X g H.s.v.h.{ -   ",
"X - *.c.m.=.D.m X X J.J.J.J.J.J.J.J.J.J.J.J.X X d H.h.z.g.' -   ",
"X - *.z.C.=.A.B X X J.J.J.J.J.J.J.J.J.J.J.J.X X s H.z.g.g._ =   ",
"X - *.l.D.*.C.B X X J.X X X X X X X X X X J.X X p H.N.i.h.( *   ",
"X - *.h.H.<.M.B X X J.X # 0 e w r e q $ X J.X X i H.C.q.j.^ *   ",
"X - *.g.H.5.z.B X X J.X < C N.0.H.N.F 4 X J.X X y H.A.9.z.~ &   ",
"X - =.p.H.w.h.B X X J.X < D v.w.H.v.F 4 X J.X X t G.S.5.z.^ &   ",
"X - <.i.H.u.d.B X X J.X < K h.y.H.z.F 4 X J.X X t D.D.5.z./ &   ",
"X - 2.w.H.e.i.B X X J.X < T 7.g.H.g.J 4 X J.X X t A.H.0.u.) &   ",
"X - 5.8.H.8.r.B X X J.X 1 R &.n.H.s.P 4 X J.X X p B.H.p.3.] *   ",
"X - 0.5.H.,.0.B X X J.X 4 P *.A.G.w.E 4 X J.X X g j.G.z.*.&.*   ",
"X - i.2.H.&.6.B X X J.X 4 H 2.H.s.;.Q 4 X J.X X x ;.c.A.*.&.-   ",
"X - a.4.S.*.5.B X X J.X 4 Z r.H.$.;.! 4 X J.X X m } 8.H.-.+.-   ",
"X - s.0.V.=.5.B X X J.X 2 V h.S.' i.! 4 X J.X X B >.*.H.2.{ -   ",
"X - s.i.n.>.3.B X X J.X 2 B N.z.X.v.! 4 X J.X X B t.O.S.w.` =   ",
"X o : : : - ; % X X J.X O % > : - : * O X J.X X % : - > ; - o X ",
"  X X X X X X X X J.J.X X X X X X X X X . J.J.X X X X X X X X X "
};
