/* XPM */
static char *result[] = {
/* columns rows colors chars-per-pixel */
"41 32 63 1 ",
"  c #7C2C16",
". c #7E2E18",
"X c #802F16",
"o c #843316",
"O c #84331B",
"+ c #88371D",
"@ c #8A391D",
"# c #943E14",
"$ c #903E1E",
"% c #893721",
"& c #8D3B22",
"* c #913F24",
"= c #9E430F",
"- c #964014",
"; c #9B4314",
": c #94411F",
"> c #9E4819",
", c #A1460F",
"< c #B5530B",
"1 c #B8570B",
"2 c #BD5C0C",
"3 c #A14610",
"4 c #A54C13",
"5 c #A94F14",
"6 c #A34D19",
"7 c #A75015",
"8 c #AB5316",
"9 c #A75018",
"0 c #AD5618",
"q c #AF5919",
"w c #B05919",
"e c #BE630F",
"r c #BF6411",
"t c #934020",
"y c #C75F07",
"u c #C85F07",
"i c #C76007",
"p c #CA6307",
"a c #C2660F",
"s c #CA6608",
"d c #CD6C09",
"f c #D56D05",
"g c #D16E08",
"h c #CF700A",
"j c #D67407",
"k c #D97306",
"l c #DA7906",
"z c #D2750B",
"x c #C06611",
"c c #C26911",
"v c #E66E01",
"b c #E77201",
"n c #E97501",
"m c #E77A01",
"M c #EA7C01",
"N c #EC8301",
"B c #ED8B01",
"V c #F18400",
"C c #F18B00",
"Z c #EF9201",
"A c #F39200",
"S c #F89100",
"D c None",
/* pixels */
"DDZZAZZZZZZAZBZZBZArtrZBBBBNBBBBNBNNNBNDD",
"DZAZZZZZZZZZZZZBZBActrZBBBBBBNBNBBNBNNNND",
"ZZZZZZZZZZZZZZZZZBAc&rCBBNBBBNNNBNNNNNNNN",
"ZZZZZZZZZZBZBBBBBBAc&rABBBBNNBNBNNNNNNNNN",
"ZZZZZZZZZZBBZBBBBBAr&rCBNBNBNNNNNNNNNMNNN",
"ZZZZZZZZBZBZBZBBBBAr&rCBBBNNNBNBNNNNNNNMN",
"ZZZZZZZZZBBBBBBBBBCr&rBNNNNBNNNNNNNNNMMNN",
"ZZZZZZZZBZBBBBBBBBCr&rCNNBNNNNNNNNMMNNNMm",
"ZZAAZAAAACACAACCACSa%eSCBBCVCVVVVVVVVVNVM",
"qqqr00wqq0qq8800888>$>8699565455564444,45",
"tttt****&*t&&&&&&+&&@@++%%O%O+@@OOOOOOOOo",
"zzzzzzzzj6*xhhhdzdddgddddddsd2+;gssfppppp",
"ZZBZBBBBS6&lCBCCVCNVNNBNVVNNVkO3VVMMMMMMM",
"BBBBBBNBC9&lBNNNNNNNNNNNNNMNNfO;VMMMMMMnM",
"BBBBBBNBC6@jVNNNNNNNNMNMMNMMNfO;MMMMMMMMn",
"BBBNNBBNC6@jBNNNNNNNNMNNMMNMMfO;VMnnMMnMn",
"BBNBBNNNB4+jNNNNNMNNMNMMMNMMNfo;MMMMnnMnM",
"NNBBNNBBC4+jNNMNMNNMNMNMMmMMMfO;MMMnnMnnn",
"BNNNNBNNV6+zNNMNNMMNMMMMMmMMMf.#MMnnnnnnn",
"CBVBCNNNC4+kVVNVNNNMVMVMMNMMMfX=MMMnMnMnM",
"ddhdddddg;+2gsdssdppssppsuuus2o#puuuuuuuu",
"&+++++++O@@+OOOoO.OOOOOooXooXXoXXXXXX XXX",
"8577554544444446444#o#43334,33,,33,,==,=,",
"VCNCCVVVVVVVVMVNNMVy.1VMMMMMMMMnMMnnnvnnn",
"NNNNMNMNMMNMMMMMnMM<.<Mnnnnnnnnvnnvbbbbbb",
"MNMNNMNmNMmMMMMmMMM1 yMnnnnnnnnnbbvbbvbvb",
"NNMMNmMMMMMMmMmmMnM1.<Mnnnnbvnvnbbvvvbbvv",
"NMMNmNmmMMMMmmMMMnM< <nnnnbnnbnvvbvvvbvvv",
"MNNMmmMMMmmmMnMnnMM< <bbnnnnbbbbvvvvvvvvv",
"NMmMMNmMmmMnmMnnnnM< <nnnbvbvvvvvvvvvvvvv",
"DmMMMMmmMnnMnnnbnnM< <MbvvbvvvbvvvvfvvvvD",
"DDmMmmMmmnMnMnnnnnn1 <nvbbvvnnvvvvvvvvvDD"
};
