/* XPM */
static char *result[] = {
/* columns rows colors chars-per-pixel */
"32 32 185 2 ",
"   c #2D631D",
".  c #30661F",
"X  c #1B5E20",
"o  c #1B5F21",
"O  c #1C6021",
"+  c #1D6222",
"@  c #1E6223",
"#  c #266522",
"$  c #206525",
"%  c #236B27",
"&  c #236B28",
"*  c #316720",
"=  c #26702B",
"-  c #2E7E33",
";  c #2F7E33",
":  c #2F7F34",
">  c #52701B",
",  c #6F7A1A",
"<  c #7D7A16",
"1  c #7D7B16",
"2  c #E65100",
"3  c #E65200",
"4  c #E75400",
"5  c #E75504",
"6  c #E95800",
"7  c #E95A00",
"8  c #EC6100",
"9  c #EC6200",
"0  c #EC6300",
"q  c #ED6400",
"w  c #EE6800",
"e  c #EE6900",
"r  c #EF6C00",
"t  c #EF6D01",
"y  c #EF6E02",
"u  c #EB630D",
"i  c #F06D00",
"p  c #F06E00",
"a  c #F07000",
"s  c #F17100",
"d  c #F17200",
"f  c #F27300",
"g  c #F27400",
"h  c #F37500",
"j  c #F37600",
"k  c #F37800",
"l  c #F47800",
"z  c #F57C00",
"x  c #F67D00",
"c  c #F57E00",
"v  c #F67F00",
"b  c #F17408",
"n  c #EC6B12",
"m  c #2F8034",
"M  c #338638",
"N  c #368B3B",
"B  c #378C3B",
"V  c #388E3D",
"C  c #39903D",
"Z  c #39903E",
"A  c #3A913F",
"S  c #3D9742",
"D  c #419C45",
"F  c #419D45",
"G  c #419E45",
"H  c #419D46",
"J  c #43A047",
"K  c #4FA546",
"L  c #43A048",
"P  c #62AC45",
"I  c #7BB644",
"U  c #AA8B13",
"Y  c #C38F0D",
"T  c #C68F0D",
"R  c #C88D0A",
"E  c #C88D0B",
"W  c #D28D06",
"Q  c #CE920E",
"!  c #CF940E",
"~  c #E78E06",
"^  c #F68000",
"/  c #F78100",
"(  c #F78300",
")  c #F78201",
"_  c #F88400",
"`  c #F88500",
"'  c #F88600",
"]  c #FA8B00",
"[  c #FB8D00",
"{  c #FB8E00",
"}  c #FA8F01",
"|  c #FB8F02",
" . c #FC8F00",
".. c #EA9606",
"X. c #E49608",
"o. c #E59708",
"O. c #F09402",
"+. c #FB9000",
"@. c #FD9200",
"#. c #FC9002",
"$. c #F99601",
"%. c #FD9400",
"&. c #FE9400",
"*. c #FE9500",
"=. c #FF9700",
"-. c #FD9503",
";. c #FE9603",
":. c #F39804",
">. c #F49804",
",. c #FB9802",
"<. c #FC9801",
"1. c #FF9800",
"2. c #FF9903",
"3. c #FC930A",
"4. c #FA900D",
"5. c #FF9B08",
"6. c #FF9D0A",
"7. c #FF9D0C",
"8. c #F48010",
"9. c #F48011",
"0. c #F5891A",
"q. c #F58A1E",
"w. c #FFA116",
"e. c #FFA117",
"r. c #FFA219",
"t. c #FFA21A",
"y. c #FFA41E",
"u. c #F9982B",
"i. c #F99B31",
"p. c #FFA521",
"a. c #FFA622",
"s. c #FFA725",
"d. c #FFA727",
"f. c #FFA827",
"g. c #FDA32B",
"h. c #FFAA2B",
"j. c #FFAE34",
"k. c #FBA63B",
"l. c #FFB03D",
"z. c #FFB13D",
"x. c #FFB13E",
"c. c #FFB03F",
"v. c #BACF3F",
"b. c #CCD63E",
"n. c #CCD73F",
"m. c #D5DA3E",
"M. c #D6DA3E",
"N. c #D6DB3E",
"B. c #F1E53C",
"V. c #F1E63C",
"C. c #FDEA3B",
"Z. c #FFEB3B",
"A. c #F8E83C",
"S. c #80B843",
"D. c #82B943",
"F. c #F39345",
"G. c #F4994A",
"H. c #FDAF44",
"J. c #F9A84F",
"K. c #FFB547",
"L. c #FFB549",
"P. c #FFB74C",
"I. c #FFB74D",
"U. c #FDB251",
"Y. c #FEBB5E",
"T. c #FFBF5F",
"R. c #FEBB60",
"E. c #99C241",
"W. c #99C342",
"Q. c #9FC541",
"!. c #9EC442",
"~. c #B2CC40",
"^. c #B2CD40",
"/. c #BACF40",
"(. c #FFC46C",
"). c #FFC56F",
"_. c #FFC672",
"`. c #FFC772",
"'. c #FFC773",
"]. c #FFC978",
"[. c #FEC97C",
"{. c #FFCB7D",
"}. c #FFCC7F",
"|. c #FFCC80",
" X c None",
/* pixels */
" X X X X X X X X X X X X X X X X X X X X X X X X X X X X X X X X",
" X X X X X X X X X X X X X X X X X X X X X X X X X X X X X X X X",
" X X X X X X X X X X X X X X X X X X X X X X X X X X X X X X X X",
" X X X X X X X X X X X X X X X X X X X X X X X X X X X X X X X X",
" X X X X X X X X X X X X X X1. X X X X X X X X X X X X X X X X X",
" X X X X X X X X X X X X X1.1.1.1.1.1. X X X X X X X X X X X X X",
" X X X X X X X X X X1. Xa.y.t.w.5.1.1.1.1. X X X X X X X X X X X",
" X X X X X X X X X X1.6.'.'.).(.z.1.d.r.1.=. X X X X X X X X X X",
" X X X X X X X X1./ w v U.}.|.[.q.z u.H.y.2.1.1. X X X X X X X X",
" X X X X X X1.1.1.x 2 4 n G.|.J.t r b k.K.p.1.1. X X X X X X X X",
" X X X X X X1.1.1.' 2 2 3 u Y.9.r y i.I.L.l.| &. X X X X X X X X",
" X X X X X X1.1.1.[ 2 2 w 4.e.) r 0.c.h.w.3.s ` 1.1. X X X X X X",
" X X X X X1.1.=.] k 6 g s.`.f.;./ _ q e  .g r f =.$. X X X X X X",
" X X X X XW %.v a r i [ x.|._.g.i 6 2 8 l r r r  .O. X X X X X X",
" X X X X X  } j r r s  .T.|.|.F.5 2 2 9 k g s p ^ <.X  X X X X X",
" X X X X; + T @.c p d #.].|.{.R.8.7 2 0 *.@.{ ] +.Y + ;  X X X X",
" X X X XF : # , E ~ ( -.P.j.7.1.1.&.s h 1.1...R , # m G  X X X X",
" X X X XJ G M & * > 1 U ! o.>.,.,.:.X.Q U < > . % M H J  X X X X",
" X X X XJ J J J C - = & $ @ O o o O @ $ & = ; Z J J J J  X X X X",
" X X XJ J J J J J J D S A V B N N B V A S D J J J J J J J  X X X",
" X X XJ J J J J J J J J P I K J J K I P J J J J J J J J J  X X X",
" X X XJ J J J J J J J J N.A.E.J J W.A.M.J J J J J J J J J  X X X",
" X X XJ J J J J J J J J N.C.b.D.D.n.C.m.J J J J J J J J J  X X X",
" X X XJ J J J J J J J J Q.A.Z.Z.Z.Z.A.!.J J J J J J J J J  X X X",
" X X X XJ J J J J J J J V.Z.~.J J ^.Z.B.J J J J J J J J  X X X X",
" X X X X XL J J J J J J /.B.S.J J S.B.v.J J J J J J J  X X X X X",
" X X X X X X XJ J J J J J J J J J J J J J J J J J  X X X X X X X",
" X X X X X X X X X X XJ J J J J J J J J J  X X X X X X X X X X X",
" X X X X X X X X X X X X X X X X X X X X X X X X X X X X X X X X",
" X X X X X X X X X X X X X X X X X X X X X X X X X X X X X X X X",
" X X X X X X X X X X X X X X X X X X X X X X X X X X X X X X X X",
" X X X X X X X X X X X X X X X X X X X X X X X X X X X X X X X X"
};
