/* XPM */
static char *result[] = {
/* columns rows colors chars-per-pixel */
"32 32 67 1 ",
"  c #444B54",
". c #464D56",
"X c #474D56",
"o c #474E57",
"O c #484E57",
"+ c #484F57",
"@ c #484F58",
"# c #495058",
"$ c #4B515A",
"% c #4B525B",
"& c #4C525B",
"* c #4C535B",
"= c #4E555D",
"- c #4E555E",
"; c #4F565E",
": c #515860",
"> c #525861",
", c #545B63",
"< c #555B64",
"1 c #6E737A",
"2 c #70757C",
"3 c #F46E67",
"4 c #767B82",
"5 c #7D8288",
"6 c #7E8389",
"7 c #81858B",
"8 c #84898F",
"9 c #8B8F95",
"0 c #8E9297",
"q c #909499",
"w c #90959A",
"e c #91959A",
"r c #96999F",
"t c #989BA1",
"y c #989CA1",
"u c #999DA1",
"i c #A0A4A8",
"p c #A6A9AD",
"a c #A6A9AE",
"s c #A7AAAE",
"d c #AAADB1",
"f c #ABAEB2",
"g c #F7948F",
"h c #F8A8A4",
"j c #C0C2C5",
"k c #C6C8CB",
"l c #C7C9CC",
"z c #C8CACC",
"x c #CCCED0",
"c c #CCCED1",
"v c #CDCFD1",
"b c #DEDFE1",
"n c #DEE0E1",
"m c #DFE0E2",
"M c #E5E5E7",
"N c #E5E6E7",
"B c #E6E7E8",
"V c #E7E7E9",
"C c #EEEEEF",
"Z c #FDE3E1",
"A c #F5F6F6",
"S c #F9F9FA",
"D c #FDFDFD",
"F c #FFFDFD",
"G c #FDFEFE",
"H c white",
"J c None",
/* pixels */
"JJJJJJJJJJJJJJJJJJJJJJJJJJJJJJJJ",
"JJJJJJJJJJJJJJJJJJJJJJJJJJJJJJJJ",
"JJJJJJJJJJJJJJJJJJJJJJJJJJJJJJJJ",
"JJJJJJJJJJJJJ33JJJJJJJJJJJJJJJJJ",
"JJJJJJJJJJJJJ33JJJJJJJJJJJJJJJJJ",
"JJJJJJJJJJJJJJJJJJJJJJJJJJJJJJJJ",
"JJJJJJJJJJJJJJJJJJJJJJJJJJJJJJJJ",
"JJJJJJJJJJJJJJJJJJJJJJJJJJJJJJJJ",
"JJJJJJJJJJJJJJJJJJJJJJJJJJJJJJJJ",
"JJJJJJJJJJJJJJJJJJJJJJJJJJJJJJJJ",
"JJJJJJJJJJJJJJJJJJ33JJJJJJJJJJJJ",
"JJJJJJJJJJJJJJJJJJ33JJJJJJJJJJJJ",
"JJJJJJJJJJJJJJJJJJJJJJJJJJJJJJJJ",
"JJJJJJJJJJJJJJJJJJJJJJJJJJJJJJJJ",
"JJJJJJJJJJJJJJJJJJJJJJJJJJJJJJJJ",
"JJJJJJJJJJJJJJJJJJJJJJJJJJJJJJJJ",
"JJJJJJJJJ333JJJ:     JJJJJJJJJJJ",
"JJJJJJJJJg3hHHHke971,    JJJJJJJ",
"JJJJJJJHHFZFHHHHHHHHHCj8@ JJJJJJ",
"JJJJJ wHHHHHHHHHHHHHHHHHM< JJJJJ",
"JJJJJ +sAHHHHHHHHHHHHHHAaO JJJJJ",
"JJJJJ   &6fvVSHHHHSBvf5%   JJJJJ",
"JJJJ          #;;#          JJJJ",
"JJJJ       =X      .=       JJJJ",
"JJJ       qDm%    *nG0       JJJ",
"JJ        cHHy2222tHHz       JJJ",
"JJ        dHHHHHHHHHHp        JJ",
"JJ        xHHu4444iHHl       JJJ",
"JJJ       rHb$    -ND0       JJJ",
"JJJJJ      >o      @:      JJJJJ",
"JJJJJJJ                  JJJJJJJ",
"JJJJJJJJJJJJ        JJJJJJJJJJJJ"
};
