/* XPM */
static char *result[] = {
/* columns rows colors chars-per-pixel */
"32 32 54 1 ",
"  c #444B54",
". c #454B54",
"X c #464D56",
"o c #494C55",
"O c #4A4C55",
"+ c #4B4C55",
"@ c #4D4D55",
"# c #4F4D55",
"$ c #524E56",
"% c #594F56",
"& c #605157",
"* c #645158",
"= c #705459",
"- c #715459",
"; c #735459",
": c #755559",
"> c #79565A",
", c #525861",
"< c #5B6269",
"1 c #686D75",
"2 c #6D737A",
"3 c #72777E",
"4 c #73787F",
"5 c #80575B",
"6 c #925A5C",
"7 c #9D5D5E",
"8 c #A15D5E",
"9 c #A65F5F",
"0 c #BD6361",
"q c #BE6461",
"w c #C86662",
"e c #CB6663",
"r c #CC6663",
"t c #D16763",
"y c #D66864",
"u c #E36B65",
"i c #ED6D66",
"p c #EE6D66",
"a c #EF6D67",
"s c #F06D67",
"d c #F26E67",
"f c #F46E67",
"g c #8A8F94",
"h c #8D9197",
"j c #8E9297",
"k c #9CA0A5",
"l c #A2A5AA",
"z c #BDBFC2",
"x c #C6C8CB",
"c c #D0D2D4",
"v c #E7E8E9",
"b c #F2F2F3",
"n c white",
"m c None",
/* pixels */
"mmmmmmmmmmmmmmmmmmmmmmmmmmmmmmmm",
"mmmmmmmmmmmmmmmmmmmmmmmmmmmmmmmm",
"mmmmmmmmmmmmmmmmmmmmmmmmmmmmmmmm",
"mmmmmmmmmmmmmm  mmmmmmmmmmmmmmmm",
"mmmmmmmmmmmmm    mmmmmmmmmmmmmmm",
"mmmmmmmmmmmm  mm  mmmmmmmmmmmmmm",
"mmmmmmmmmmm  mmmm  mmmmmmmmmmmmm",
"mmmmmmmmmm  mmfmmm  mmmmmmmmmmmm",
"mmmmmmmmm  mmfffmmm  mmmmmmmmmmm",
"mmmmmmmm  mmfffffmmm  mmmmmmmmmm",
"mmmmmmm  mmfffffffmmm  mmmmmmmmm",
"mmmmmm  mmfffffffffmmm  mmmmmmmm",
"mmmmm  mmfffffffffffmmm  mmmmmmm",
"mmmm  mmfffffffffffffmmm  mmmmmm",
"mmm  mmfffffffffffffffmmm  mmmmm",
"mm  mmfffffffffffffffffmmm  mmmm",
"m  mmffffffs9*o$5yffffffmmm  mmm",
"  mmffffffp- 3kj,Oqffffffmmm mmm",
"mmmmffffff6Xznnnb2@uffffffmmmmmm",
"mmmmfffffi+hnnnnnvX7ffffd8mmmmmm",
"mmmmffffft xnnnnnn1>ffffe mmmmmm",
"mmmmfffffw cnnnnnn4=ffffw mmmmmm",
"mmmmfffffw cnnnnnn4=ffffw mmmmmm",
"mmmmfffffw cnnnnnn4=ffffw mmmmmm",
"mmmmfffffw cnnnnnn4=ffffw mmmmmm",
"mmmmfffffw cnnnnnn4=ffffw mmmmmm",
"mmmmfffffr gllllll<:ffffw mmmmmm",
"mmmmfffffa;.      #0ffffw mmmmmm",
"mmmmffffffffffffffffffffw mmmmmm",
"mmmmffffffffffffffffffffw mmmmmm",
"m   &&&&&&&&&&&&&&&&&&&&%   mmmm",
"m                           mmmm"
};
