/* XPM */
static char *result[] = {
/* columns rows colors chars-per-pixel */
"32 32 220 2 ",
"   c #454B54",
".  c #464C54",
"X  c #464C55",
"o  c #474C55",
"O  c #474D55",
"+  c #474D56",
"@  c #484D55",
"#  c #4A4E55",
"$  c #484D56",
"%  c #494E56",
"&  c #4B4F56",
"*  c #4A4F57",
"=  c #4B4F57",
"-  c #4A4F58",
";  c #4D5056",
":  c #4C5057",
">  c #4F5157",
",  c #4B5058",
"<  c #4C5058",
"1  c #4E5158",
"2  c #4D5259",
"3  c #4F525A",
"4  c #4F535A",
"5  c #505257",
"6  c #515258",
"7  c #505359",
"8  c #515359",
"9  c #525358",
"0  c #535458",
"q  c #565659",
"w  c #54555B",
"e  c #54565A",
"r  c #55575B",
"t  c #50545C",
"y  c #52555C",
"u  c #53565C",
"i  c #53565D",
"p  c #53565E",
"a  c #585759",
"s  c #59585A",
"d  c #5D5A5B",
"f  c #5B595C",
"g  c #5A595D",
"h  c #5B5A5E",
"j  c #5B5B5E",
"k  c #5C5B5E",
"l  c #5F5D5F",
"z  c #605C5C",
"x  c #645E5D",
"c  c #67605E",
"v  c #6A625F",
"b  c #6B635F",
"n  c #535760",
"m  c #565B64",
"M  c #595B60",
"N  c #605D60",
"B  c #605E60",
"V  c #625F61",
"C  c #5B606A",
"Z  c #5C6068",
"A  c #5D626C",
"S  c #5E636D",
"D  c #696463",
"F  c #6E6560",
"G  c #6F6560",
"H  c #6F6561",
"J  c #6A6464",
"K  c #6B6565",
"L  c #6E6766",
"P  c #60646E",
"I  c #6B6769",
"U  c #6F6A6B",
"Y  c #6C6A6E",
"T  c #706560",
"R  c #726761",
"E  c #726862",
"W  c #756962",
"Q  c #766962",
"!  c #786B62",
"~  c #796C63",
"^  c #7A6C63",
"/  c #7B6D64",
"(  c #7C6E65",
")  c #7D6E65",
"_  c #7E6F66",
"`  c #726A68",
"'  c #746C68",
"]  c #776E6B",
"[  c #756F6F",
"{  c #796F6B",
"}  c #7E7066",
"|  c #7F7066",
" . c #7C716D",
".. c #7D726D",
"X. c #7E736D",
"o. c #6F6C70",
"O. c #6F6D70",
"+. c #716E71",
"@. c #736F72",
"#. c #777070",
"$. c #7B7372",
"%. c #787375",
"&. c #7A7474",
"*. c #7A7577",
"=. c #7C7474",
"-. c #7E7777",
";. c #7F797A",
":. c #817268",
">. c #827369",
",. c #84746A",
"<. c #86766B",
"1. c #80736E",
"2. c #80746D",
"3. c #84776F",
"4. c #89786E",
"5. c #8A796E",
"6. c #8B7A6F",
"7. c #857770",
"8. c #877870",
"9. c #877970",
"0. c #857A77",
"q. c #897A71",
"w. c #8B7B72",
"e. c #8C7B70",
"r. c #8D7C70",
"t. c #8D7C71",
"y. c #8E7C71",
"u. c #8C7C73",
"i. c #8F7D72",
"p. c #8E7D74",
"a. c #8F7E74",
"s. c #837978",
"d. c #847B7A",
"f. c #827B7C",
"g. c #877E7C",
"h. c #928074",
"j. c #928075",
"k. c #938175",
"l. c #948175",
"z. c #948276",
"x. c #968377",
"c. c #968378",
"v. c #978478",
"b. c #988579",
"n. c #98857A",
"m. c #9C8A7F",
"M. c #9D8A7F",
"N. c #8C8383",
"B. c #8F8481",
"V. c #8E8484",
"C. c #8F8585",
"Z. c #8F8685",
"A. c #9D8A80",
"S. c #9E8C81",
"D. c #9F8C81",
"F. c #9C8B85",
"G. c #9E8D85",
"H. c #908788",
"J. c #9B8D88",
"K. c #9C908D",
"L. c #9C908E",
"P. c #9E928F",
"I. c #A08E83",
"U. c #A08E84",
"Y. c #A08F86",
"T. c #A49188",
"R. c #A49288",
"E. c #A5928A",
"W. c #A7948B",
"Q. c #A7948C",
"!. c #A8968D",
"~. c #A9968D",
"^. c #AB968D",
"/. c #A8968E",
"(. c #A9978E",
"). c #A9978F",
"_. c #AE988F",
"`. c #A19491",
"'. c #A29591",
"]. c #A79894",
"[. c #AB9991",
"{. c #AD9B93",
"}. c #A99A96",
"|. c #AB9B97",
" X c #AC9C98",
".X c #AF9F9A",
"XX c #B29B91",
"oX c #B39C92",
"OX c #B49D92",
"+X c #B79F93",
"@X c #B49E95",
"#X c #BAA195",
"$X c #B8A197",
"%X c #B1A19B",
"&X c #B4A19B",
"*X c #B4A29B",
"=X c #B5A29C",
"-X c #B5A39C",
";X c #B4A29D",
":X c #B6A39D",
">X c #B6A49E",
",X c #B7A59F",
"<X c #BBA79E",
"1X c #C5ADA1",
"2X c #C7AFA3",
"3X c #C9AEA0",
"4X c #C8B0A4",
"5X c #CEB5A8",
"6X c #CFB6AA",
"7X c #D0B6A8",
"8X c #D2B7A8",
"9X c #D0B7AA",
"0X c #D6BBAC",
"qX c #D9BCAC",
"wX c #DCBFB0",
"eX c #DDBFB0",
"rX c #E1C3B3",
"tX c #E4C5B4",
"yX c #E5C6B5",
"uX c None",
/* pixels */
"uXuXuXuXuXuXuXuXuXuXuXuXuXuXuXuXuXuXuXuXuXuXuXuXuXuXuXuXuXuXuXuX",
"uXuXuXuXuXuXuXuXuXuXuXuXuXuXuXuXuXuXuXuXuXuXuXuXuXuXuXuXuXuXuXuX",
"uXuXuXuXuXuXuXuXuXuXuXuXuXuXuXuXuXuXuXuXuXuXuXuXuXuXuXuXuXuXuXuX",
"uXuXuXuXuXuXuXuXuXuXuXuXuXuXuXuXuXuXuXuXuXuXuXuXuXuXuXuXuXuXuXuX",
"uXuXuXuXuXuXuXuXuXuXuXuXuXuXuXuXuXuXuXuXuXuXuXuXuXuXuXuXuXuXuXuX",
"uXuXuXuXuXuX      uXuXuXuXuXuXuXuXuXuXuXuXuXuX      uXuXuXuXuXuX",
"uXuXuXuXuX  1 h @   uXuXuX            uXuXuX  o 0 &   uXuXuXuXuX",
"uXuXuXuX  7 j.x.8.%       8 V K D f ;       @ G ^ ! ;   uXuXuXuX",
"uXuXuXuX  V x.x.x.1.@ B 9.x.x.x.x.x.6.E a O b ^ ^ ^ s   uXuXuXuX",
"uXuXuXuX  : a.u.h w.z.x.x.n.R.[.[.R.n.h._ ~ T 0 W Q #   uXuXuXuX",
"uXuXuXuXuX  r w = p.x.x.S.=X,X,X,X,X=XD.k.( R @ 6 5   uXuXuXuXuX",
"uXuXuXuXuXuX    2.x.x.A.>X,X,X,X,X,X,X>XA.t.^ v     uXuXuXuXuXuX",
"uXuXuXuXuXuX  g x.x.n.&X,X,X,X,X,X,X,X,X*Xn.:.^ 9   uXuXuXuXuXuX",
"uXuXuXuXuXuX  X.x.x./.,X,X,X,X,X,X,X,X,X,X!.y.^ v   uXuXuXuXuXuX",
"uXuXuXuXuX  % x.x.b.>X,X,X,X,X,X,X,X,X,X,X:Xv.) ^ @   uXuXuXuXuX",
"uXuXuXuXuX  k x.x.I.,X,X,X,X,X,X,X,X,X,X,X,XU.,.^ 0   uXuXuXuXuX",
"uXuXuXuXuX  L x.x.W.K.f.Z.,X.XN.V.%X,XC.f.L.Q.5.^ z   uXuXuXuXuX",
"uXuXuXuXuX  { x.x.(.o.  i }.t     p  Xi   O.).r.^ c   uXuXuXuXuX",
"uXuXuXuXuX  3.x.x.!.,X;X>XY 2 2X@X, +.>X;X,X~.i.^ F   uXuXuXuXuX",
"uXuXuXuXuX  a.x.x.T.,X,X].o B.yXqX$.$ |.,X,XT.y.^ W   uXuXuXuXuX",
"uXuXuXuX  % x.x.x.M.,X,X@.* 0XyXtXXX% %.,X,Xm.e.^ ^ O   uXuXuXuX",
"uXuXuXuX  e x.x.x.x.-X X% g.yXyXyX3X[ - .X-Xc.4.^ ^ >   uXuXuXuX",
"uXuXuXuX  l x.x.x.x.{.*.+ 7XyXyXyX8X^.o ;.{.x.<.^ ^ q   uXuXuXuX",
"uXuXuXuX  J x.x.x.x.G.< -.yX5X`.'.1X#XU 4 Y.x.>.^ ^ d   uXuXuXuX",
"uXuXuXuX  ' x.x.x.x.]   4X<XP A A Z F.E.   .x.| ^ ^ x   uXuXuXuX",
"uXuXuXuX  ..x.x.x.x.L X eXH.A A A m =.OX. ` x./ ^ ^ H   uXuXuXuX",
"uXuXuXuXuXuXuXx.x.x.7.  J.6XS A A n _.0.. q.l./ } uXuXuXuXuXuXuX",
"uXuXuXuXuXuXuXuXuXuXx.j y wXP.A C s.oX3 N x.uXuXuXuXuXuXuXuXuXuX",
"uXuXuXuXuXuXuXuXuXuXuXuX  &.rX9X$X+XI   uXuXuXuXuXuXuXuXuXuXuXuX",
"uXuXuXuXuXuXuXuXuXuXuXuXuX  M d.#.u   uXuXuXuXuXuXuXuXuXuXuXuXuX",
"uXuXuXuXuXuXuXuXuXuXuXuXuXuX        uXuXuXuXuXuXuXuXuXuXuXuXuXuX",
"uXuXuXuXuXuXuXuXuXuXuXuXuXuXuXuXuXuXuXuXuXuXuXuXuXuXuXuXuXuXuXuX"
};
