/* XPM */
static char *result[] = {
/* columns rows colors chars-per-pixel */
"41 32 65 1 ",
"  c #7C2C16",
". c #7E2E18",
"X c #802F16",
"o c #843316",
"O c #84331B",
"+ c #88371D",
"@ c #8A391D",
"# c #943E14",
"$ c #903E1E",
"% c #893721",
"& c #8D3B22",
"* c #913F24",
"= c #9E430F",
"- c #964014",
"; c #9B4314",
": c #94411F",
"> c #9E4819",
", c #A1460F",
"< c #B5530B",
"1 c #B8570B",
"2 c #BD5C0C",
"3 c #A14610",
"4 c #A54C13",
"5 c #A94F14",
"6 c #A34D19",
"7 c #A75015",
"8 c #AB5316",
"9 c #A75018",
"0 c #AD5618",
"q c #AF5919",
"w c #B05919",
"e c #BE630F",
"r c #BF6411",
"t c #934020",
"y c #C75F07",
"u c #C85F07",
"i c #C76007",
"p c #CA6307",
"a c #C2660F",
"s c #CA6608",
"d c #CD6C09",
"f c #D56D05",
"g c #D16E08",
"h c #CC7200",
"j c #CF700A",
"k c #D67407",
"l c #D97306",
"z c #DA7906",
"x c #D2750B",
"c c #C06611",
"v c #C26911",
"b c #E66D01",
"n c #E77201",
"m c #E97501",
"M c #E77A01",
"N c #EA7C01",
"B c #D08200",
"V c #EC8301",
"C c #ED8B01",
"Z c #F18400",
"A c #F18B00",
"S c #EF9201",
"D c #F39200",
"F c #F89100",
"G c None",
/* pixels */
"GDSDSSSSSSSSSSSCSSDr*rDSCCCCVVCCCVCVCVVVG",
"BSSSSSSSSCSSSSSSSCDvtvDCCCCCCCCVCVCVVVVVh",
"SSSSSDSSSSSCCSCCSCDv&rDVCVCCCVVCVCVVVCVVV",
"SSSSSSSSSSSSSCCSCCDv&rACVCCVVCVVVVVVVVBVV",
"SSSSSSSSSCCSCSCCCCDr&rDCVCVCVVVCVVVVVVVVV",
"SSSSSSSSSCSCACCCCCDc&rAVCVCVCVVVVVVVVVNVV",
"SSSSSSSSCSCCCSCCCCAr%rACVVVCVVVVVNVNNVVNN",
"SSSSSSSSCSCCCCCACCAr%rAVVCVVVVVVVVVVVNNNV",
"SSSDSDDDAADDDADADAFc%aFACCZAVZAZZZZZVZZVN",
"wwqr00wqwq0q0908090>@>8996545544544444445",
"tttt********&&%%@@%@@@O%%%O%OO@@OOOOXOXXo",
"xxxxxxjxk6&axjxgggdxdgdddddddy+;gssgsssss",
"SSSCCSCCA9&zACAAAZAZVVVVZZVVZlO;ZZNNZNNNN",
"CCCVCCCCA5%zCCCVVVVVVVVVVNNVVfO>ZNNNNNNNm",
"CCCCVCCCA5%kVVVVVVVVVVNVNVVNNkO;NNNMNmNmN",
"CCCCCVVVA6%kVVVVVVNVNVVNVNNNVfo;ZNMmNNNmm",
"CCCVVCVCC6+kVVVVVVVNVNVNVNNNVfo;ZNmNmmmmm",
"VCVCCVVVA4+kVVVNNVNVNVNNNNNNNfX;NNNmmNmmN",
"VCVVVVVVZ6+kVVNVVNMVNNNNNMNNMfX;NNmmmmmmm",
"CACZACCZA6+lZVZZVVVVZNZNNVNNNfX;NNmmNNNmm",
"djddddddg;+agsdsssppsspsppuus2X#uuuuuuuup",
"%++++++OO+@OOOOO.OOOOOXOXXoXXXooXXoX  XXo",
"9599555444444446434#o#43335,33,,3,33==3,=",
"AAZAZZZZZZZZZNZVVZZy.1ZNNNNNNNNmNNmmmmmmm",
"VVVNVNVNVMMNNNNNNNN<X<Nmmmmmmmbmnmbnnbbbn",
"VNVNNVVNVMVMNMMNNmN<XyNmmmmmmmnmnnnnnnmbn",
"VVVVMVNNNNNNNNMMmNmyX<Nmmmmnmmnnnnbbbmbbn",
"NNNNVNNNNNNMMMMNmmn< <mmmmmmbnmbnbbbbbbbb",
"NVVNMMVNNNMMmNmmNmN1 5bmnnnnnnbnbbbbbbbbb",
"MNNNNNNMNNNMNmNmmmN< <mmnnnnbnnbbbbbbfbbb",
"NMNNNMMMmmmNmNmmnmm1 <mnnnnnnbbnbbbbbbbbb",
"GNMNMMMMMNNmmmmnmmm1 ymnnnbbnnbnbbbbbbbbG"
};
