/* XPM */
static char *result[] = {
/* columns rows colors chars-per-pixel */
"32 32 26 1 ",
"  c #454B54",
". c #474D56",
"X c #484F58",
"o c #4A5059",
"O c #4A515A",
"+ c #4E545E",
"@ c #545B64",
"# c #555D66",
"$ c #565E67",
"% c #596069",
"& c #59606A",
"* c #5B636C",
"= c #676F79",
"- c #68717A",
"; c #707982",
": c #737C86",
"> c #8E99A4",
", c #939FA9",
"< c #A7B4BF",
"1 c #B2C0CB",
"2 c #B7C6D0",
"3 c #BAC9D4",
"4 c #BECED9",
"5 c #C3D3DE",
"6 c #C7D7E2",
"7 c None",
/* pixels */
"77777777777777777777777777777777",
"77777777777777777777777777777777",
"77777777777777777777777777777777",
"77777777777777777777777777777777",
"77777777777777777777777777777777",
"7777777  777777  777777  7777777",
"777777 =$ 7777 =$ 7777 =$ 777777",
"77777 -52@ 77 -52@ 77 -52@ 77777",
"77777 ,66: 77 ,66: 77 ,66: 77777",
"77777 ,66: 77 ,66: 77 ,66: 77777",
"77777 ,66: 77 ,66: 77 ,66: 77777",
"77777 ,66: 77 ,66: 77 ,66: 77777",
"777   ,66:    ,66:    ,66:   777",
"7777< ,66:#1< ,66:#1< ,66:#17777",
"77773 ,66:&63 ,66:&63 ,66:&67777",
"77777 ,66:.77 ,66:.77 ,66:.77777",
"77777 ,66: 77 ,66: 77 ,66: 77777",
"77777 ,66: 77 ,66: 77 ,66: 77777",
"77777 ,66: 77 ,66: 77 ,66: 77777",
"77777 ,66: 77 ,66: 77 ,66: 77777",
"77777 ,66: 77 ,66: 77 ,66: 77777",
"7777  ,66:    ,66:    ,66:  7777",
"777O% ,66:X*% ,66:X*% ,66:X*o777",
"77773 ,66:&63 ,66:&63 ,66:&67777",
"77777 ,66:+77 ,66:+77 ,66:+77777",
"77777 >44; 77 >44; 77 >44; 77777",
"77777      77      77      77777",
"77777777777777777777777777777777",
"77777777777777777777777777777777",
"77777777777777777777777777777777",
"77777777777777777777777777777777",
"77777777777777777777777777777777"
};
