/* XPM */
static char *result[] = {
/* columns rows colors chars-per-pixel */
"32 32 145 2 ",
"   c #893616",
".  c #8A3716",
"X  c #8B3817",
"o  c #8C3917",
"O  c #8C3918",
"+  c #8D3A18",
"@  c #8E3A19",
"#  c #8E3B19",
"$  c #8F3C1A",
"%  c #953F15",
"&  c #903C1A",
"*  c #903D1A",
"=  c #913D1B",
"-  c #913E1B",
";  c #923F1C",
":  c #964015",
">  c #9E4511",
",  c #93401C",
"<  c #93401D",
"1  c #94411D",
"2  c #95411D",
"3  c #95421E",
"4  c #96421E",
"5  c #97431F",
"6  c #97441F",
"7  c #A6480E",
"8  c #A7490E",
"9  c #A74A0E",
"0  c #A84A0E",
"q  c #A84B0E",
"w  c #A84B0F",
"e  c #A94C0F",
"r  c #A94D0F",
"t  c #AA4D0F",
"y  c #AA4E0F",
"u  c #B75A0F",
"i  c #A44D15",
"p  c #AA4E10",
"a  c #AB4F10",
"s  c #AB5010",
"d  c #AC5010",
"f  c #AC5110",
"g  c #AC5111",
"h  c #AD5111",
"j  c #AD5211",
"k  c #AE5311",
"l  c #AD5312",
"z  c #AE5312",
"x  c #AF5412",
"c  c #AF5512",
"v  c #B05512",
"b  c #B05513",
"n  c #B05613",
"m  c #B05713",
"M  c #B15713",
"N  c #B25914",
"B  c #B35A14",
"V  c #B35A15",
"C  c #B45B15",
"Z  c #B45C15",
"A  c #B55C16",
"S  c #B55D16",
"D  c #B65E16",
"F  c #B65F17",
"G  c #BD6312",
"H  c #984420",
"J  c #984520",
"K  c #994520",
"L  c #994621",
"P  c #9A4721",
"I  c #9B4721",
"U  c #9B4822",
"Y  c #C96308",
"T  c #C96408",
"R  c #CA6508",
"E  c #CB6609",
"W  c #CB6709",
"Q  c #CB6809",
"!  c #CD6A09",
"~  c #CD6B0A",
"^  c #CD6C0A",
"/  c #CE6D0A",
"(  c #CE6E0A",
")  c #CF6E0A",
"_  c #CF6F0A",
"`  c #CF700A",
"'  c #CF700B",
"]  c #CF710B",
"[  c #D0710B",
"{  c #D1730B",
"}  c #D1740B",
"|  c #D1750C",
" . c #D2750C",
".. c #D2760C",
"X. c #E66C01",
"o. c #E66D01",
"O. c #E66E01",
"+. c #E66F01",
"@. c #E76F01",
"#. c #E77001",
"$. c #E77101",
"%. c #E77201",
"&. c #E77301",
"*. c #E87301",
"=. c #E87401",
"-. c #E87501",
";. c #E87601",
":. c #E87701",
">. c #E97701",
",. c #E97801",
"<. c #E97901",
"1. c #E97A01",
"2. c #E97B01",
"3. c #EA7C01",
"4. c #EA7D01",
"5. c #EA7E01",
"6. c #EA7F01",
"7. c #EA8001",
"8. c #EB8001",
"9. c #EB8101",
"0. c #EB8201",
"q. c #EB8301",
"w. c #EB8401",
"e. c #EC8401",
"r. c #EC8501",
"t. c #EC8601",
"y. c #EC8701",
"u. c #EC8801",
"i. c #ED8801",
"p. c #ED8901",
"a. c #ED8A01",
"s. c #ED8B01",
"d. c #ED8C01",
"f. c #EE8C01",
"g. c #EE8D01",
"h. c #EE8E01",
"j. c #EE8F01",
"k. c #EE9001",
"l. c #EF9101",
"z. c #EF9201",
"x. c #EF9301",
"c. c #EF9401",
"v. c #F09501",
"b. c #F09601",
"n. c None",
/* pixels */
"n.n.n.n.n.n.n.n.n.n.n.n.n.n.n.n.n.n.n.n.n.n.n.n.n.n.n.n.n.n.n.n.",
"n.n.n.n.n.n.n.n.n.n.n.n.n.n.n.n.n.n.n.n.n.n.n.n.n.n.n.n.n.n.n.n.",
"n.n.n.n.n.n.n.n.n.n.n.n.n.n.n.n.n.n.n.n.n.n.n.n.n.n.n.n.n.n.n.n.",
"n.n.n.n.n.n.n.n.n.n.n.n.n.n.n.n.n.n.n.n.n.n.n.n.n.n.n.n.n.n.n.n.",
"n.n.n.n.n.n.n.n.n.n.n.n.n.n.n.n.n.n.n.n.n.n.n.n.n.n.n.n.n.n.n.n.",
"n.n.n.n.n.n.n.n.n.n.n.n.n.n.n.n.n.n.n.n.n.n.n.n.n.n.n.n.n.n.n.n.",
"n.n.n.b.b.v.c.c.x.z.l.l.k.k.j.F D g.d.d.s.a.p.p.u.y.y.t.r.n.n.n.",
"n.n.n.v.c.c.x.z.z.l.k.k.j.h.g.D S d.s.a.p.p.u.u.y.t.r.r.w.n.n.n.",
"n.n.n.c.x.x.z.l.k.k.j.h.h.g.d.A Z a.p.p.u.u.y.t.r.r.e.w.q.n.n.n.",
"n.n.n.x.z.l.k.k.j.j.h.g.d.d.s.C C p.i.u.y.t.r.r.e.w.q.0.9.n.n.n.",
"n.n.n.l.k.k.j.j.h.g.d.d.s.s.a.V B u.y.t.t.r.e.w.q.0.9.9.8.n.n.n.",
"n.n.n.k.j.j.h.g.f.d.s.s.a.p.i.N N y.t.r.e.w.q.0.0.9.8.7.6.n.n.n.",
"n.n.n.U I P L K J H 6 5 4 3 2 1 < , ; ; - = * & $ # @ + O n.n.n.",
"n.n.n... .| } { G 5 [ ] ' _ _ ) / / ^ ^ ~ ! $ u Q Q W E E n.n.n.",
"n.n.n.d.s.s.a.p.[ 4 y.y.t.r.e.e.q.q.0.9.8.8.# Q 5.4.3.3.2.n.n.n.",
"n.n.n.s.a.a.p.i.` 1 t.r.r.e.q.q.0.9.8.8.6.6.+ W 3.3.2.2.1.n.n.n.",
"n.n.n.a.p.i.y.y._ < r.e.q.q.0.9.9.8.6.6.5.4.o R 2.2.1.<.,.n.n.n.",
"n.n.n.i.y.y.t.t.( ; q.q.0.0.9.8.6.6.5.4.4.3.X T 1.<.,.,.:.n.n.n.",
"n.n.n.y.t.t.r.e.^ - 0.0.9.8.6.6.5.5.4.3.2.2.. Y <.,.:.:.;.n.n.n.",
"n.n.n.M m n v c i * z k j g f d s a p p y r   > q q q 9 9 n.n.n.",
"n.n.n.n b c x x z l j h g d a : % p t t e e w q q 0 8 8 7 n.n.n.",
"n.n.n.q.0.0.9.9.7.6.5.5.4.3.3.p y 1.<.,.>.:.;.;.-.=.*.&.%.n.n.n.",
"n.n.n.0.9.9.7.6.5.5.4.3.3.2.1.r r ,.>.:.;.;.-.=.*.&.%.%.$.n.n.n.",
"n.n.n.9.8.6.5.5.4.4.3.2.1.1.<.e e :.;.;.-.=.=.*.%.%.$.#.@.n.n.n.",
"n.n.n.6.5.5.4.4.3.2.1.1.<.<.,.q q ;.-.=.=.*.%.%.$.#.@.@.O.n.n.n.",
"n.n.n.5.4.4.3.2.1.1.<.<.,.>.;.0 0 -.=.*.%.%.$.#.#.@.O.O.o.n.n.n.",
"n.n.n.n.3.2.2.1.1.<.,.>.:.;.;.9 8 *.&.%.$.$.#.@.+.O.o.X.n.n.n.n.",
"n.n.n.n.n.n.n.n.n.n.n.n.n.n.n.n.n.n.n.n.n.n.n.n.n.n.n.n.n.n.n.n.",
"n.n.n.n.n.n.n.n.n.n.n.n.n.n.n.n.n.n.n.n.n.n.n.n.n.n.n.n.n.n.n.n.",
"n.n.n.n.n.n.n.n.n.n.n.n.n.n.n.n.n.n.n.n.n.n.n.n.n.n.n.n.n.n.n.n.",
"n.n.n.n.n.n.n.n.n.n.n.n.n.n.n.n.n.n.n.n.n.n.n.n.n.n.n.n.n.n.n.n.",
"n.n.n.n.n.n.n.n.n.n.n.n.n.n.n.n.n.n.n.n.n.n.n.n.n.n.n.n.n.n.n.n."
};
