/* XPM */
static char *result[] = {
/* columns rows colors chars-per-pixel */
"32 32 33 1 ",
"  c #A34F0B",
". c #A5510C",
"X c #AA540E",
"o c #AD5710",
"O c #AF5811",
"+ c #B35C14",
"@ c #B85F16",
"# c #B96017",
"$ c #BD6419",
"% c #C1661C",
"& c #C4691D",
"* c #C86B1F",
"= c #D3731E",
"- c #C66C20",
"; c #CB6E21",
": c #CE7124",
"> c #D57523",
", c #D87722",
"< c #D97823",
"1 c #D57728",
"2 c #D57A2A",
"3 c #DB7D2C",
"4 c #DF802D",
"5 c #E3832E",
"6 c #E48531",
"7 c #E78835",
"8 c #EA8A36",
"9 c #EC8D39",
"0 c #F18F3A",
"q c #F4933D",
"w c #F79540",
"e c #F99741",
"r c None",
/* pixels */
"rrrrrrrrrrrrrrrrrrrrrrrrrrrrrrrr",
"rrrrrrrrrrrrrrrrrrrrrrrrrrrrrrrr",
"rrrrrrrrrrrrrrrrrrrrrrrrrrrrrrrr",
"rrrrrrrrrrrrrrrrrrrrrrrrrrrrrrrr",
"rrrrrrrerrrrrrreerrrrrrrerrrrrrr",
"rrrrrrewqrrrrrrwqrrrrrreeqrrrrrr",
"rrrrreqqqrrrrrwqqqrrrrrqqqqrrrrr",
"rrrrrqqqqqrrrwwqqqqrrrqqqqqrrrrr",
"rrrrr99988rrr999999rrr7w889rrrrr",
"rrr1<1111:--%;:---%++O$%$$$OXrrr",
"rr1>::13;&%%$$$;-++++Oo+-#.X..rr",
"rr::;;9q3%$$$#&99%OOoOo:06....rr",
"rr;**&691@$@@+%77$OoXXX-73... rr",
"rr**&%-;%@@@+++$$oooXX.X#O .  rr",
"rrr&%*&&&&@++#$###+.X.+#+#+o rrr",
"rrrrr65433rrr664444rrr64444rrrrr",
"rrrrr55555rrr555645rrr55555rrrrr",
"rrrrr33212rrr332222rrr32222rrrrr",
"rr>><1>****%%%$$#@++++oooooXX.rr",
"rr>1:;37;&%%$$%21#+++oo#3&....rr",
"rr1;**qq5%$$$#*00-+oooo2q8....rr",
"rr;;*&38:$$@++$53@OoXXX$5:. ..rr",
"rr*%%%$$$#@++++o+oXXX.......  rr",
"rrrr&&&&%%rrr%$$$$#rrr$$$##+rrrr",
"rrrrr,,,==rrr,,,,==rrr,,=,=rrrrr",
"rrrrr,====rrr,=,===rrr,,===rrrrr",
"rrrrr=====rrr,=====rrr=====rrrrr",
"rrrrrrrrrrrrrrrrrrrrrrrrrrrrrrrr",
"rrrrrrrrrrrrrrrrrrrrrrrrrrrrrrrr",
"rrrrrrrrrrrrrrrrrrrrrrrrrrrrrrrr",
"rrrrrrrrrrrrrrrrrrrrrrrrrrrrrrrr",
"rrrrrrrrrrrrrrrrrrrrrrrrrrrrrrrr"
};
