/* XPM */
static char *result[] = {
/* columns rows colors chars-per-pixel */
"32 32 97 2 ",
"   c #8D6C9F",
".  c #8F6C9F",
"X  c #8E6D9F",
"o  c #9A6B9D",
"O  c #A16B9B",
"+  c #B76A97",
"@  c #B66A98",
"#  c #B9729D",
"$  c #BB729D",
"%  c #BC729C",
"&  c #BD729C",
"*  c #8D6CA0",
"=  c #8D6DA0",
"-  c #8F6EA0",
";  c #906DA0",
":  c #916FA0",
">  c #9170A0",
",  c #9674A0",
"<  c #9675A3",
"1  c #9776A3",
"2  c #9E71A2",
"3  c #9875A1",
"4  c #9878A5",
"5  c #A774A4",
"6  c #A27EA2",
"7  c #C06995",
"8  c #C26995",
"9  c #C76994",
"0  c #CA6993",
"q  c #DD6790",
"w  c #D06892",
"e  c #D26A94",
"r  c #C0739C",
"t  c #C1739C",
"y  c #CC749B",
"u  c #CD749B",
"i  c #D3759B",
"p  c #D5759A",
"a  c #D4759B",
"s  c #D97499",
"d  c #D9769A",
"f  c #D8769B",
"g  c #DA769A",
"h  c #DB769A",
"j  c #DC789D",
"k  c #E0678F",
"l  c #E26A91",
"z  c #E56D93",
"x  c #E77094",
"c  c #E97396",
"v  c #EB7598",
"b  c #ED7899",
"n  c #EF7B9D",
"m  c #C27CA9",
"M  c #C37CA9",
"N  c #F17FA2",
"B  c #A984A2",
"V  c #AB85A3",
"C  c #B28AA4",
"Z  c #B78FA4",
"A  c #BA92A5",
"S  c #AC91B1",
"D  c #AD92B1",
"F  c #BDA5BB",
"G  c #BEA6BB",
"H  c #D080AB",
"J  c #D381AC",
"K  c #D882AD",
"L  c #DD84AE",
"P  c #C59BA6",
"I  c #C69BA6",
"U  c #C69BA7",
"Y  c #CA9EA7",
"T  c #CB9FA7",
"R  c #E383AC",
"E  c #E486AF",
"W  c #E586AF",
"Q  c #F382A6",
"!  c #F585AA",
"~  c #F789AF",
"^  c #F58BB2",
"/  c #F98CB3",
"(  c #CBA0A7",
")  c #CCA0A7",
"_  c #CDA1A7",
"`  c #C2ACBE",
"'  c #C3ACBE",
"]  c #C4AEBF",
"[  c #F9DD8F",
"{  c #ECD091",
"}  c #F2DD9C",
"|  c #FFEA9A",
" . c #FFEB9B",
".. c #C6B0C0",
"X. c #D2BFC7",
"o. c #FAEFDE",
"O. c None",
/* pixels */
"O.O.O.O.O.O.O.O.O.O.O.O.O.O.O.O.O.O.O.O.O.O.O.O.O.O.O.O.O.O.O.O.",
"O.O.O.O.O.O.O.O.O.O.O.O.O.O.O.O.O.O.O.O.O.O.O.O.O.O.O.O.O.O.O.O.",
"O.O.O.O.O.O.O.O.O.O.O.O.O.O.O.O.O.O.O.O.O.O.O.O.O.O.O.O.O.O.O.O.",
"O.O.O.O.O.O.O.O.O.O.O.O.O.O.O.O.O.O.O.O.O.O.O.O.O.O.O.O.O.O.O.O.",
"O.O.O.O.O.O.O.O.O.O.O.O.O.O.O.O.O.O.O.O.O.O.O.O.O.O.O.O.O.O.O.O.",
"O.O.O.O.O.O.O.O.O.O.O.O.O.O.O.O.O.O.O.O.O.O.O.O.O.O.O.O.O.O.O.O.",
"O.O.O.O.O.O.O.O.O.O.O.O.O.O.O.O.        O.O.O.O.O.O.O.O.O.O.O.O.",
"O.O.O.O.O.O.O.O.O.O.O.O.=     X V U ( A , O.O.O.O.O.O.O.O.O.O.O.",
"O.O.O.O.O.O.O.O.O.O.O.  B P ( Y _ _ _ _ I > O.O.O.O.O.O.O.O.O.O.",
"O.O.O.O.O.O.O.O.O.    V _ _ _ _ _ _ _ _ _ C     O.O.O.O.O.O.O.O.",
"O.O.O.O.O.O.O.O.: Z T _ _ _ _ _ _ _ _ _ _ _ P 6   O.O.O.O.O.O.O.",
"O.O.O.O.O.O.O.  Z _ _ _ _ _ _ _ _ _ _ _ _ _ _ ) 3 O.O.O.O.O.O.O.",
"O.O.O.O.O.                                            O.O.O.O.O.",
"O.O.O.O.  K / / / ~ b b b b b b b b b b b b l k k k 9   O.O.O.O.",
"O.O.O.O.; ^ / / / ! b b b b b b b b b b b b z k k k q . O.O.O.O.",
"O.O.O.O.5 / / / / Q b f r d b b b b d r f b x k k k k O O.O.O.O.",
"O.O.O.  m / / / / N p 4 F 1 d b b g 1 F 4 i c k k k k @   O.O.O.",
"O.O.O.  J / H / E j & ` o.X.-     - X.o.' % s w k 7 k 8   O.O.O.",
"O.O.O.  M /   / M & y D o.o.o.o.o.o.o.o.S u & + k   k +   O.O.O.",
"O.O.O.2 W / H / R h # ..o.X.-     - X.o.] $ h e k 7 k w o O.O.O.",
"O.O.  m / / / / ! b i 4 F < h b b d < G 4 a b z k k k k @   O.O.",
"O.O.  L / / / / Q b b d t g b b b b d t d b b x k k k k 0   O.O.",
"O.O.; ^ / / / / N b b b b b b b b b b b b b b c k k k k q . O.O.",
"O.O.5 / / / / / n b b b b b b b b b b b b b b v k k k k k O O.O.",
"                                                                ",
"  }  . . . . . . . . . . . . .| [ [ [ [ [ [ [ [ [ [ [ [ [ [ {   ",
"                                                              * ",
"O.O.O.O.O.O.O.O.O.O.O.O.O.O.O.O.O.O.O.O.O.O.O.O.O.O.O.O.O.O.O.O.",
"O.O.O.O.O.O.O.O.O.O.O.O.O.O.O.O.O.O.O.O.O.O.O.O.O.O.O.O.O.O.O.O.",
"O.O.O.O.O.O.O.O.O.O.O.O.O.O.O.O.O.O.O.O.O.O.O.O.O.O.O.O.O.O.O.O.",
"O.O.O.O.O.O.O.O.O.O.O.O.O.O.O.O.O.O.O.O.O.O.O.O.O.O.O.O.O.O.O.O.",
"O.O.O.O.O.O.O.O.O.O.O.O.O.O.O.O.O.O.O.O.O.O.O.O.O.O.O.O.O.O.O.O."
};
