/* XPM */
static char *result[] = {
/* columns rows colors chars-per-pixel */
"32 32 144 2 ",
"   c #8D6C9F",
".  c #8D6D9F",
"X  c #8E6C9F",
"o  c #8E6D9F",
"O  c #8F6E9F",
"+  c #8C7D9C",
"@  c #9A7A9D",
"#  c #9A799E",
"$  c #8E6EA0",
"%  c #916FA0",
"&  c #906FA1",
"*  c #9270A0",
"=  c #9371A0",
"-  c #9372A1",
";  c #9472A0",
":  c #9573A0",
">  c #9473A1",
",  c #9274A2",
"<  c #9374A2",
"1  c #9575A1",
"2  c #9674A0",
"3  c #9774A0",
"4  c #9675A2",
"5  c #9875A0",
"6  c #9876A1",
"7  c #9976A1",
"8  c #9A77A1",
"9  c #9B78A1",
"0  c #9979A3",
"q  c #9A7BA3",
"w  c #9C79A1",
"e  c #9D7AA1",
"r  c #9E7AA1",
"t  c #9F7BA1",
"y  c #997BA6",
"u  c #997BA7",
"i  c #9A7BA6",
"p  c #9A7BA7",
"a  c #9A7CA7",
"s  c #9D7DA4",
"d  c #9E7FA4",
"f  c #A07CA2",
"g  c #A17DA2",
"h  c #A27DA2",
"j  c #8B879A",
"k  c #8C879A",
"l  c #8B8999",
"z  c #8B8A99",
"x  c #8B8E98",
"c  c #A580A2",
"v  c #A681A2",
"b  c #A485A6",
"n  c #A586A6",
"m  c #A882A2",
"M  c #A983A3",
"N  c #A984A3",
"B  c #AB85A3",
"V  c #AD86A3",
"C  c #AD87A3",
"Z  c #AF88A3",
"A  c #A98BA8",
"S  c #AA8CA9",
"D  c #B189A3",
"F  c #B18AA3",
"G  c #B38CA4",
"H  c #B48CA4",
"J  c #B48DA4",
"K  c #B58DA4",
"L  c #B68FA4",
"P  c #B990A4",
"I  c #B890A5",
"U  c #BA91A5",
"Y  c #BA92A5",
"T  c #BB92A5",
"R  c #BC93A5",
"E  c #BD94A5",
"W  c #BE95A5",
"Q  c #BF95A5",
"!  c #B395AB",
"~  c #B497AB",
"^  c #BA9DAD",
"/  c #B8A1B8",
"(  c #B9A1B8",
")  c #B9A1B9",
"_  c #C9AB96",
"`  c #CAAB96",
"'  c #C096A5",
"]  c #C398A6",
"[  c #C399A6",
"{  c #C49AA6",
"}  c #C59AA6",
"|  c #C69BA6",
" . c #C69CA6",
".. c #C79CA6",
"X. c #C89DA6",
"o. c #C89DA7",
"O. c #C99DA7",
"+. c #C99EA7",
"@. c #CA9FA7",
"#. c #CBA0A7",
"$. c #CCA0A7",
"%. c #CDA1A7",
"&. c #C4A8B0",
"*. c #C6ABB1",
"=. c #CBB1B3",
"-. c #CDB2B3",
";. c #D4BBB6",
":. c #D5BCB6",
">. c #F9DD8F",
",. c #DAC1B7",
"<. c #DAC1B8",
"1. c #E0C7B9",
"2. c #E2C9BA",
"3. c #E6CEBB",
"4. c #E7CFBC",
"5. c #E9D1BC",
"6. c #EAD2BC",
"7. c #EDD6BD",
"8. c #EED7BE",
"9. c #EFD8BE",
"0. c #EFD9BF",
"q. c #F0D9BF",
"w. c #DCCBCC",
"e. c #DCCBCD",
"r. c #F0DBC1",
"t. c #F0DBC2",
"y. c #F1DDC4",
"u. c #F1DDC5",
"i. c #F2DEC6",
"p. c #ECDED6",
"a. c #ECDFD6",
"s. c #F3E0C9",
"d. c #F4E3CE",
"f. c #F5E4CE",
"g. c #F6E7D3",
"h. c #F7E7D4",
"j. c #F6E8D3",
"k. c #F7E8D4",
"l. c #F8EAD8",
"z. c #F8EBD8",
"x. c #F9EDDB",
"c. c #FAEEDD",
"v. c #FAEFDE",
"b. c None",
/* pixels */
"b.b.b.b.b.b.b.b.b.b.b.b.b.b.b.b.b.b.b.b.b.b.b.b.b.b.b.b.b.b.b.b.",
"b.b.b.b.b.b.b.b.b.b.b.b.b.b.b.b.b.b.b.b.b.b.b.b.b.b.b.b.b.b.b.b.",
"b.b.b.b.b.b.b.b.b.b.b.b.b.b.b.b.b.b.b.b.b.b.b.b.b.b.b.b.b.b.b.b.",
"b.b.b.b.b.b.b.b.b.b.b.b.b.b.b.  b.b.b.b.b.b.b.b.b.b.b.b.b.b.b.b.",
"b.b.b.b.b.b.b.b.b.b.b.b.b.  ; H : X b.b.b.b.b.b.b.b.b.b.b.b.b.b.",
"b.b.b.b.b.b.b.b.b.b.b.b.  9 ..%.X.w   b.b.b.b.b.b.b.b.b.b.b.b.b.",
"b.b.b.b.b.b.b.b.b.b.b.  c #.P 8 I $.v   b.b.b.b.b.b.b.b.b.b.b.b.",
"b.b.b.b.b.b.b.b.b.b.o D %.C 0 -.q V %.F o b.b.b.b.b.b.b.b.b.b.b.",
"b.b.b.b.b.b.b.b.b.% T @.h b 3.9.4.n g @.R * b.b.b.b.b.b.b.b.b.b.",
"b.b.b.b.b.b.b.  3 [ | 7 ! 7.9.i.9.7.~ 6 { } 5   b.b.b.b.b.b.b.b.",
"b.b.b.b.b.b.  t +.W ; &.9.0.j.v.k.q.9.*.; E +.f   b.b.b.b.b.b.b.",
"b.b.b.b.b.  N $.J 1 ;.9.r.l.v.v.v.z.t.9.:.4 G %.B   b.b.b.b.b.b.",
"b.b.b.b.O K $.M s 1.9.u.x.v.v.v.v.v.x.u.9.2.d m $.L O b.b.b.b.b.",
"b.b.b.= Q O.r A 5.9.s.c.v.i       a v.c.s.9.6.S e o.' ; b.b.b.b.",
"b.. 8  .] 2 ^ 8.9.d.v.v.v.v.v.v.v.v.v.v.v.f.9.8.^ 2 ] | 8   b.b.",
"b.  @.Y - =.9.0.g.v.v.v.v.v.v.v.v.v.v.v.v.v.h.q.9.=.> U @.  b.b.",
"b.  Z X ,.9.r.l.v.v.v.v.p./ u & p ) a.v.v.v.v.l.t.9.<.X Z . b.b.",
"b.      9.y.x.v.v.v.v.w., + l x z + < e.v.v.v.v.x.y.9.      b.b.",
"b.b.b.  k.c.v.v.v.v.p., k x x x x x j < a.v.v.v.v.c.k.  b.b.b.b.",
"b.b.b.  v.v.v.v.v.v.( + x x x x x x x + ) v.v.v.v.v.v.  b.b.b.b.",
"b.b.b.  v.v.v.v.v.v.y l x x x x x x x l a v.v.v.v.v.v.  b.b.b.b.",
"b.b.b.  v.v.v.v.v.v.$ x x x x x x x x x $ v.v.v.v.v.v.  b.b.b.b.",
"b.b.b.  v.v.v.v.v.v.  x x x x x x x x x   v.v.v.v.v.v.  b.b.b.b.",
"b.b.b.                x x x x x x x x x                 b.b.b.b.",
"b.b.b.  >.>.>.>.>.>.  x x x x x x x x x   >.>.>.>.>.>.  b.b.b.b.",
"b.b.b.  >.# >._ ` >.  x x x x x x x x x   >._ ` >.# >.  b.b.b.b.",
"b.b.b.  >.@ >.` ` >.  x x x x x x x x x   >.` ` >.@ >.  b.b.b.b.",
"b.b.b.  >.>.>.>.>.>.  x x x x x x x x x   >.>.>.>.>.>.  b.b.b.b.",
"b.                                                          b.b.",
"b.b.b.b.b.b.b.b.b.b.b.b.b.b.b.b.b.b.b.b.b.b.b.b.b.b.b.b.b.b.b.b.",
"b.b.b.b.b.b.b.b.b.b.b.b.b.b.b.b.b.b.b.b.b.b.b.b.b.b.b.b.b.b.b.b.",
"b.b.b.b.b.b.b.b.b.b.b.b.b.b.b.b.b.b.b.b.b.b.b.b.b.b.b.b.b.b.b.b."
};
