/* XPM */
static char *result[] = {
/* columns rows colors chars-per-pixel */
"32 32 39 1 ",
"  c #444B54",
". c #454C55",
"X c #464C55",
"o c #474D55",
"O c #4E5158",
"+ c #525359",
"@ c #54535A",
"# c #55555B",
"$ c #5E5A5E",
"% c #635C60",
"& c #655D61",
"* c #685F62",
"= c #6B6163",
"- c #736566",
"; c #786868",
": c #796868",
"> c #7C6A69",
", c #806C6B",
"< c #86706D",
"1 c #88706E",
"2 c #8D7370",
"3 c #947773",
"4 c #987974",
"5 c #9A7A75",
"6 c #9A7B75",
"7 c #9B7B75",
"8 c #A07E77",
"9 c #A17E78",
"0 c #A48079",
"q c #A8827A",
"w c #AB847B",
"e c #AE867C",
"r c #B2887E",
"t c #B4897F",
"y c #B98C81",
"u c #BE8F83",
"i c #BF8F83",
"p c #D3D8DD",
"a c None",
/* pixels */
"aaaaaaaaaaaaaaaaaaaaaaaaaaaaaaaa",
"aaaaaaaaaaaaaaaaaaaaaaaaaaaaaaaa",
"aaaaaaaaaaaaaaaaaaaaaaaaaaaaaaaa",
"aaaaaaaaaaaaaaaaaaaaaaaaaaaaaaaa",
"aaaaaaaaaaaaaaaaaaaaaaaaaaaaaaaa",
"aaaaaaaaaaaaaaaaaaaaaaaaaaaaaaaa",
"aaaaaaaaaaaaaaaaaaaaaaaaaaaaaaaa",
"aaaaaaaaaaaaaaappaaaaaaaaaaaaaaa",
"aaaaaaaaaaaaaaapaaaaaaaaaaaaaaaa",
"aaaaaaaaaaaaaappaaaaaaaaaaaaaaaa",
"aaaaaaaaaaaaaapaaaaaaaaaaaaaaaaa",
"aaaaaaaaaaaaaapaaaaaaaaaaaaaaaaa",
"aaaaaaaaaaaaaappaaaaaaaaaaaaaaaa",
"aaaaaaaaaaaaaappaaapaaaaaaaaaaaa",
"aaaaaaaaaaaaaaappaappaaaaaaaaaaa",
"aaaaaaaaaaapaaaaaaappaaaaaaaaaaa",
"aaaaaaaaaaappaaaaaapaaaaaaaaaaaa",
"aaaaaaaaaaapaaaaaaaaaaaaaaaaaaaa",
"aaaaaaaaaaapaaaaaaaaaaaaaaaaaaaa",
"aaaaaaaaaappaaaaaaaaaaaaaaaaaaaa",
"aaaaaaaaaappaaaaaaaaaaaaaaaaaaaa",
"aaaaaaaaaapaaaa   aaaaaaaaaaaaaa",
"aaaaaaaaaaaaaaa$* aaaaaaaaaaaaaa",
"aaaaaaaaaaaaaa+1* aaaaaaaaaaaaaa",
"aaaaaaaaaaaa  X     aaaaaaaaaaaa",
"aaaaaaaaaaaa@8utq7; aaaaaaaaaaaa",
"aaaaaaaaaaaaiiyrw05  aaaaaaaaaaa",
"aaaaaaaaa   o.        aaaaaaaaaa",
"aaaaaaaa #-:,<2369qet= aaaaaaaaa",
"aaaaaaaa 4iiiiiiiiiii> aaaaaaaaa",
"aaaaaaaa O&&&&&&&&&&%o aaaaaaaaa",
"aaaaaaaaa             aaaaaaaaaa"
};
