/* XPM */
static char *result[] = {
/* columns rows colors chars-per-pixel */
"32 32 159 2 ",
"   c #434B54",
".  c #444B54",
"X  c #444C54",
"o  c #444C55",
"O  c #454C55",
"+  c #464D56",
"@  c #474E57",
"#  c #484F58",
"$  c #495059",
"%  c #4A5059",
"&  c #4A515A",
"*  c #4B525B",
"=  c #4C535C",
"-  c #4D545C",
";  c #4D545D",
":  c #4E555D",
">  c #4E555E",
",  c #4F565F",
"<  c #50575F",
"1  c #505760",
"2  c #515860",
"3  c #525861",
"4  c #525962",
"5  c #535962",
"6  c #535A63",
"7  c #555B64",
"8  c #555C65",
"9  c #565D65",
"0  c #575E66",
"q  c #575E67",
"w  c #585F68",
"e  c #5A6069",
"r  c #5B626A",
"t  c #5D636C",
"y  c #5D646C",
"u  c #5E646D",
"i  c #5E656D",
"p  c #60666E",
"a  c #60676F",
"s  c #626870",
"d  c #626970",
"f  c #636A72",
"g  c #646A72",
"h  c #646B73",
"j  c #656C74",
"k  c #686F76",
"l  c #686F77",
"z  c #696F77",
"x  c #6A7078",
"c  c #6B7179",
"v  c #6B727A",
"b  c #6C727A",
"n  c #6D737B",
"m  c #6D747C",
"M  c #6E747C",
"N  c #6E757D",
"B  c #6F757D",
"V  c #6F767E",
"C  c #70767E",
"Z  c #71777F",
"A  c #727880",
"S  c #727980",
"D  c #737981",
"F  c #737A81",
"G  c #767C83",
"H  c #777D85",
"J  c #7C828A",
"K  c #7D838A",
"L  c #7D838B",
"P  c #7F858C",
"I  c #7F858D",
"U  c #80868E",
"Y  c #81878E",
"T  c #838990",
"R  c #848A91",
"E  c #858B92",
"W  c #858C93",
"Q  c #868D94",
"!  c #878D94",
"~  c #878D95",
"^  c #888E95",
"/  c #8A9097",
"(  c #8C9299",
")  c #8D9299",
"_  c #8E959B",
"`  c #90969D",
"'  c #91979E",
"]  c #9399A0",
"[  c #949AA1",
"{  c #959CA2",
"}  c #969CA3",
"|  c #979DA4",
" . c #989DA4",
".. c #989EA4",
"X. c #989EA5",
"o. c #9AA0A7",
"O. c #9BA1A7",
"+. c #9CA2A8",
"@. c #9CA2A9",
"#. c #9EA4AA",
"$. c #9FA4AB",
"%. c #9FA5AB",
"&. c #A1A7AD",
"*. c #A1A7AE",
"=. c #A3A9B0",
"-. c #A4AAB0",
";. c #A6ACB2",
":. c #A7ACB3",
">. c #A7ADB3",
",. c #A9AFB5",
"<. c #AAB0B5",
"1. c #AAB0B6",
"2. c #ABB0B6",
"3. c #ABB0B7",
"4. c #ADB4B9",
"5. c #AEB4BA",
"6. c #AFB4BA",
"7. c #B2B7BD",
"8. c #B7BCC2",
"9. c #B9BFC4",
"0. c #BABFC5",
"q. c #BBBFC5",
"w. c #BBC0C6",
"e. c #BBC1C6",
"r. c #BCC2C7",
"t. c #BDC2C8",
"y. c #BEC3C8",
"u. c #C1C6CC",
"i. c #C1C7CC",
"p. c #C2C6CC",
"a. c #C2C7CD",
"s. c #C3C8CD",
"d. c #C3C9CE",
"f. c #C4C9CF",
"g. c #C4CACF",
"h. c #C5CACF",
"j. c #C5CAD0",
"k. c #C6CBD0",
"l. c #C7CCD1",
"z. c #C8CDD3",
"x. c #C9CED4",
"c. c #CACFD5",
"v. c #CBD0D5",
"b. c #CBD0D6",
"n. c #CBD1D6",
"m. c #CCD1D6",
"M. c #CCD1D7",
"N. c #CDD2D7",
"B. c #CED3D8",
"V. c #CFD4D9",
"C. c #CFD5DA",
"Z. c #D0D5DA",
"A. c #D0D5DB",
"S. c #D0D6DB",
"D. c #D1D6DB",
"F. c #D2D7DC",
"G. c #D2D7DD",
"H. c #D3D8DD",
"J. c None",
/* pixels */
"J.J.. . . . J.J.J.J.J.J.. . . . J.J.J.J.J.J.J.J.J.J.J.J.J.J.J.J.",
"J.. $ f j 1 . . . . . . 3 j f $ . J.J.J.J.J.J.J.J.J.J.J.J.J.J.J.",
". $ e.H.H.V.^ j j j j ) S.b.F.w.$ . J.J.J.J.J.J.J.J.J.J.J.J.J.J.",
". x H.m.H.H.H.H.H.H.H.H.H.1 U H.t . J.J.J.J.J.J.J.J.J.J.J.J.J.J.",
"J.p.^ , H.H.H.H.H.H.H.H.H.! . { O J.J.J.J.J.J.J.J.J.J.J.J.J.J.J.",
"J.J.@ K ,.& $ $ $ $ $ F H.S.g . . J.J.J.J.J.J.J.J.J.J.J.J.J.J.J.",
"J.. 2 l.l . . . . . u >.H.H.u.; e J.J.J.J.J.J.J.J.J.J.J.J.J.J.J.",
"J.. &.' . @.B $ X.n & u.H.H.H.8.8.;.. J.J.J.J.J.J.J.J.J.J.J.J.J.",
"J.J.J.& B H.H.H.H.g.= m H.V.L u.H.` . J.J.J.J.J.J.J.J.J.J.J.J.J.",
"J.J.. & i.$.q % m a.O.5 D.y.. *.H.>.. . . . . J.J.J.J.J.J.J.J.J.",
"J.J.. ` 2.O x ~ > y A.H.H.y.. *.H.h.B c c z r + . . J.J.J.J.J.J.",
"J.. e A.r i S.H.3.. [ H.H.e.. =.H.H.H.H.H.H.H.c.+.r .   J.J.J.J.",
"J.. A H.-.t.H.H.H.B ; q.F.T . r.H.H.H.H.H.H.H.H.H.D.( O . J.J.J.",
"J.. + W a.H.H.H.H.u.5 O * . P H.| ..H.H.H.H.H.H.H.H.H.%.O . J.J.",
"J.J.. . . r Z G H B.z.] R -.H.6.+ Y H.H.H.H.H.H.H.H.H.H./ . J.J.",
"J.J.o 9.[ S a y v M.H.H.H.l._ # i v.H.H.H.H.H.H.H.H.H.H.Z.w . J.",
"J.. 3 H.H.H.H.H.H.H.H.1.< O . D x.H.H.H.H.H.H.H.H.H.H.H.H. .. J.",
"J.. r H.H.H.H.H.H.H.H.r.P ` 0.H.H.H.H.H.H.H.H.H.H.H.H.H.H.k.o J.",
"J.. t H.H.H.H.H.H.H.H.H.H.H.H.H.H.H.H.H.H.H.H.H.H.H.H.H.H.H.7 . ",
"J.. 1 H.H.H.H.H.H.H.H.H.H.H.H.H.H.H.H.H.E Q H.H.H.H.H.H.H.H.s . ",
"J.J.o n.H.H.H.H.H.H.H.H.H.H.H.H.H.H.H.H.k b H.H.H.H.H.H.H.H.h . ",
"J.J.. <.H.H.H.H.H.H.H.H.H.H.H.H.H.H.H.H.k b H.H.H.H.H.H.H.H.h . ",
"J.J.. I H.f.N } f.H.H.H.H.H.s.[ C h.H.H.k b H.H.H.H.H.H.H.H.h . ",
"J.J.. = N.j.a . . 8 l V l 7 . . . / H.H.k b H.4.J p > t.H.H.h . ",
"J.J.J.. } H.C.. . . . . . . J.J.. 6 D.H.k d H.9 . . . ~ H.H.h . ",
"J.J.J.. 8 A.C.. . J.J.J.J.J.J.J.J.. :.H.k . J.J.J.J.. 9 G.H.h . ",
"J.J.J.J.. #.C.. . J.J.J.J.J.. J.J.. M H.k . J.J.J.J.J.. 7.H.h . ",
"J.J.J.J.. y C.. . J.J.J.J.. . J.J.. O d.k . J.J.J.J.J.. U H.h . ",
"J.J.J.. $ J C.. . J.J.J.J.. . J.J.. l k.k . J.J.J.J.. 4 o.H.h . ",
"J.J.J.. ! H.C.. . J.J.J.. . J.J.. f H.H.k . J.J.J.J.. 5.H.H.h . ",
"J.J.J.. 0 c x . . J.J.J.. . J.J.. : c c : . J.J.J.J.. s c c - . ",
"J.J.J.X . . . . J.J.J.J.. J.J.J.J.. . . . J.J.J.J.J.. . . . . J."
};
