/* XPM */
static char *result[] = {
/* columns rows colors chars-per-pixel */
"32 32 39 1 ",
"  c #444B54",
". c #444C54",
"X c #454C55",
"o c #464C55",
"O c #474D55",
"+ c #4E5158",
"@ c #525359",
"# c #54535A",
"$ c #55555B",
"% c #5E5A5E",
"& c #635C60",
"* c #655D61",
"= c #685F62",
"- c #6B6163",
"; c #736566",
": c #786868",
"> c #796868",
", c #7C6A69",
"< c #806C6B",
"1 c #86706D",
"2 c #88706E",
"3 c #8D7370",
"4 c #947773",
"5 c #987974",
"6 c #9A7A75",
"7 c #9A7B75",
"8 c #9B7B75",
"9 c #A07E77",
"0 c #A17E78",
"q c #A48079",
"w c #A8827A",
"e c #AB847B",
"r c #AE867C",
"t c #B2887E",
"y c #B4897F",
"u c #B98C81",
"i c #BE8F83",
"p c #BF8F83",
"a c None",
/* pixels */
"aaaaaaaaaaaaaaaaaaaaaaaaaaaaaaaa",
"aaaaaaaaaaaaaaaaaaaaaaaaaaaaaaaa",
"aaaaaaaaaaaaaaaaaaaaaaaaaaaaaaaa",
"aaaaaaaaaaaaaaaaaaaaaaaaaaaaaaaa",
"aaaaaaaaaaaaaaaaaaaaaaaaaaaaaaaa",
"aaaaaaaaaaaaaaaaaaaaaaaaaaaaaaaa",
"aaaaaaaaaaaaaaaaaaaaaaaaaaaaaaaa",
"aaaaaaaaaaaaaaaaaaaaaaaaaaaaaaaa",
"aaaaaaaaaaa aaaaaaaaaaaaaaaaaaaa",
"aaaaaaaaaaa  aaaaaaaaaaaaaaaaaaa",
"aaaa aaaaaa  aaaaaa  aaaaaa aaaa",
"aaaa aaaaaaa aaaaaa aaaaaaa aaaa",
"aaaaaa aaaaa aaaaaa aaaaa.aaaaaa",
"aaaaaa  aaaaaaaaaaaaaaaa  aaaaaa",
"aaaaaaa  aaaaaaaaaaaaaa  aaaaaaa",
"aaaaaaaa aaaaaaaaaaaaaa aaaaaaaa",
"aaaaaaaaaaaaaaaaaaaaaaaaaaaaaaaa",
"aaaaaaaaaaaaaaaaaaaaaaaaaaaaaaaa",
"aaaaa aaaaaaaaaaaaaaaaaaaa   aaa",
"aaaaa  aaaaaaaaaaaaaaaaaa   aaaa",
"aaaaaaaaaaaaaaaaaaaaaaaaaaaaaaaa",
"aaaaaaaaaaaaaaa   aaaaaaaaaaaaaa",
"aaaaaaaaaaaaaaa%= aaaaaaaaaaaaaa",
"aaaaaaaaaaaaaa@2= aaaaaaaaaaaaaa",
"aaaaaaaaaaaa  o     aaaaaaaaaaaa",
"aaaaaaaaaaaa#9iyw8: aaaaaaaaaaaa",
"aaaaaaaaaaaapputeq6  aaaaaaaaaaa",
"aaaaaaaaa   OX        aaaaaaaaaa",
"aaaaaaaa $;><13470wry- aaaaaaaaa",
"aaaaaaaa 5ppppppppppp, aaaaaaaaa",
"a        +**********&O      aaaa",
"a                           aaaa"
};
