/* XPM */
static char *result[] = {
/* columns rows colors chars-per-pixel */
"32 32 118 2 ",
"   c #444B54",
".  c #444B55",
"X  c #444C54",
"o  c #454C55",
"O  c #464C55",
"+  c #464D55",
"@  c #474D55",
"#  c #474D56",
"$  c #484E56",
"%  c #494F57",
"&  c #4A4F57",
"*  c #4A5057",
"=  c #4B5058",
"-  c #4C5158",
";  c #4E5259",
":  c #4F5359",
">  c #4F535A",
",  c #51555B",
"<  c #53555C",
"1  c #53565C",
"2  c #54575C",
"3  c #56585E",
"4  c #58595E",
"5  c #595A5F",
"6  c #595B5F",
"7  c #5A5B5F",
"8  c #5D5D61",
"9  c #5F5E62",
"0  c #605F62",
"q  c #606063",
"w  c #626164",
"e  c #636164",
"r  c #636264",
"t  c #646265",
"y  c #656365",
"u  c #676466",
"i  c #676566",
"p  c #686667",
"a  c #696667",
"s  c #696668",
"d  c #6A6768",
"f  c #6B6768",
"g  c #6B6769",
"h  c #6C6869",
"j  c #6D696A",
"k  c #6E696A",
"l  c #6E6A6A",
"z  c #6F6A6A",
"x  c #706B6B",
"c  c #756F6E",
"v  c #766F6E",
"b  c #76706E",
"n  c #78716F",
"m  c #7D7471",
"M  c #7D7571",
"N  c #7D7572",
"B  c #7E7572",
"V  c #7E7672",
"C  c #7F7673",
"Z  c #73787F",
"A  c #807773",
"S  c #817774",
"D  c #847975",
"F  c #847A75",
"G  c #887C77",
"H  c #8A7E78",
"J  c #8C7F7A",
"K  c #91837C",
"L  c #93857D",
"P  c #988980",
"I  c #9B8A81",
"U  c #9F8E84",
"Y  c #A08E84",
"T  c #A28F85",
"R  c #A59287",
"E  c #A79387",
"W  c #AC978A",
"Q  c #AD988B",
"!  c #AF998C",
"~  c #B19B8D",
"^  c #B39C8D",
"/  c #B89F90",
"(  c #B9A191",
")  c #BDA493",
"_  c #BEA494",
"`  c #B6B9BC",
"'  c #C0A594",
"]  c #C2A796",
"[  c #C3A796",
"{  c #C4A897",
"}  c #C5A897",
"|  c #C5A997",
" . c #C9AB99",
".. c #CBAE9A",
"X. c #CCAE9B",
"o. c #CDAF9B",
"O. c #CEAF9B",
"+. c #CEB09C",
"@. c #D0B19D",
"#. c #D1B29D",
"$. c #D2B39E",
"%. c #D3B39E",
"&. c #D5B59F",
"*. c #D6B5A0",
"=. c #D8B7A1",
"-. c #D9B7A1",
";. c #DAB8A2",
":. c #DBB9A2",
">. c #DBB9A3",
",. c #DCB9A3",
"<. c #DCBAA3",
"1. c #DEBBA4",
"2. c #E0BCA5",
"3. c #E0BDA5",
"4. c #E1BDA5",
"5. c #E1BDA6",
"6. c #E2BEA6",
"7. c None",
/* pixels */
"7.7.7.7.7.7.7.7.7.7.7.7.7.7.7.7.7.7.7.7.7.7.7.7.7.7.7.7.7.7.7.7.",
"7.7.7.7.7.7.7.7.7.7.7.7.7.7.7.7.7.7.7.7.7.7.7.7.7.7.7.7.7.7.7.7.",
"7.7.7.7.7.7.7.7.7.7.7.7.7.7.7.7.7.7.7.7.7.7.7.7.7.7.7.7.7.7.7.7.",
"7.7.7.7.7.7.7.7.7.7.7.7.7.7.7.7.7.7.7.7.7.7.7.7.7.7.7.7.7.7.7.7.",
"7.7.7.7.7.7.7.7.7.7.7.7.7.7.7.7.7.7.7.7.7.7.7.7.7.7.7.7.7.7.7.7.",
"7.7.7.7.7.7.7.7.7.7.7.7.7.7.          7.7.7.7.7.7.7.7.7.7.7.7.7.",
"7.7.7.7.7.7.7.7.7.7.7.7.7.  - n J G 4   7.7.7.7.7.7.7.7.7.7.7.7.",
"7.7.7.7.7.7.7.7.7.7.7.7.  b *.6.6.6.>.a   7.7.7.7.7.7.7.7.7.7.7.",
"7.7.7.7.7.7.7.7.7.7.7.  j 3.6.6.6.6.6.(   7.7.7.7.7.7.7.7.7.7.7.",
"7.7.7.7.7.7.7.7.7.7.7.  [ 6.6.6.6.6.6.O.  7.7.7.7.7.7.7.7.7.7.7.",
"7.7.7.7.7.7.7.7.7.7.  # P P P P P / 6.%.o           . 7.7.7.7.7.",
"7.7.7.7.7.7.7.7.7.7.X             9 6.6.| w             7.7.7.7.",
"7.    7.7.7.7.7.7.7.7.7.7.7.7.7.7.7.7.6.6.p   Z `       7.7.7.7.",
"7.7.  7.7.7.7.7.7.7.7.7.7.7.7.7.7.7.O S 6.e   Z `               ",
"7.7.    7.7.7.7.7.7.7.7.7.7.7.7.7.7.  B 6.d       2 K L L L 0   ",
"7.7.7.  7.7.7.7.7.7.7.7.7.7.7.7.7.7.  Q 6.^ #   * _ 6.6.6.6.n   ",
"7.7.7.    7.7.7.7.7.7.7.7.7.7.7.7.  a 5.6.6...W @.6.6.6.6.6.q   ",
"7.7.7.7.                          s &.6.6.6.6.6.6.6.6.6.,.Y   7.",
"7.7.7.7.7.7.+ 6           - h C ! 4.6.6.6.6.' c < % % %       7.",
"7.7.7.7.7.7.6.6.v       8 $.6.6.6.6.6.6.6.] &           7.7.7.7.",
"7.7.7.7.  w 6.6.:.J i D &.6.6.6.6.6.6.6.6.f   7.7.7.7.7.7.7.7.7.",
"7.7.7.  o ) 6.6.6.6.6.6.6.6.6.6.6.6.6.6.o.  7.7.    7.7.7.7.7.7.",
"7.7.7.  m 6.6.6.6.6.6.6.6.6.6.6.6.6.6.6.R O =.#.l ;   7.7.7.7.7.",
"7.7.  + X.6.6.6.6.6.6.6.6.6.6.6.6.6.6.6.H 7 6.6.6.<.M   7.7.7.7.",
"7.7.  N 6.6.-.U x 1 +   ; a I -.6.6.6.6.v y 6.6.6.;.1.3   7.7.7.",
"7.7.o  .6.T >   q :           , ~ 6.6.6.g   7.7.7.O F =   7.7.7.",
"7.  n 2.B   x } 6.7.7.7.7.7.7.  o E 6.6.t   7.7.7.      7.7.7.7.",
"7.  A V   7.6.6.4.k 7.7.7.7.7.7.  $ { 6.r   7.7.7.7.7.7.7.7.7.7.",
"7.      7.7.@ D 4.;   7.7.7.7.7.7.  z 6.u   7.7.7.7.7.7.7.7.7.7.",
"7.7.7.7.7.7.  @ +.x   7.7.7.7.7.7.  o %.a   7.7.7.7.7.7.7.7.7.7.",
"7.7.7.7.7.7.7.  3 %   7.7.7.7.7.7.7.  5 + 7.7.7.7.7.7.7.7.7.7.7.",
"7.7.7.7.7.7.7.7.    7.7.7.7.7.7.7.7.7.    7.7.7.7.7.7.7.7.7.7.7."
};
